<?xml version="1.0" encoding="UTF-8"?>
<svg version="1.1" xmlns="http://www.w3.org/2000/svg" width="129" height="110">
<path d="M0 0 C0.95688721 0.01337402 1.91377441 0.02674805 2.8996582 0.04052734 C16.65100273 0.58625981 36.44971383 4.38851355 47.1875 13.8125 C47.94140625 15.98828125 47.94140625 15.98828125 48.1875 17.8125 C49.1775 17.8125 50.1675 17.8125 51.1875 17.8125 C52.984375 19.5 52.984375 19.5 54.9375 21.8125 C55.63488281 22.63105469 56.33226563 23.44960938 57.05078125 24.29296875 C57.75589844 25.12441406 58.46101563 25.95585938 59.1875 26.8125 C62.00942549 29.90428212 62.00942549 29.90428212 64.83984375 32.98828125 C66.28332286 34.94220805 66.77341628 36.43807057 67.1875 38.8125 C66.1975 39.3075 66.1975 39.3075 65.1875 39.8125 C67.1675 41.1325 69.1475 42.4525 71.1875 43.8125 C70.8575 44.8025 70.5275 45.7925 70.1875 46.8125 C66.625 48 66.625 48 63.1875 48.8125 C63.1875 49.4725 63.1875 50.1325 63.1875 50.8125 C64.8375 50.4825 66.4875 50.1525 68.1875 49.8125 C66.2014462 52.74254234 64.60497399 54.37831707 61.4375 55.9375 C56.09881995 58.73479186 51.19605998 62.09340735 46.24121094 65.51025391 C41.39591758 68.8125 41.39591758 68.8125 39.1875 68.8125 C39.1875 69.4725 39.1875 70.1325 39.1875 70.8125 C37.49560547 71.60914062 37.49560547 71.60914062 35.76953125 72.421875 C29.97140212 75.31902346 24.77011954 79.04972489 19.45898438 82.7421875 C18.69263672 83.26554687 17.92628906 83.78890625 17.13671875 84.328125 C16.44924561 84.80540039 15.76177246 85.28267578 15.0534668 85.77441406 C13.1875 86.8125 13.1875 86.8125 10.1875 86.8125 C11.5075 85.4925 12.8275 84.1725 14.1875 82.8125 C13.71328613 83.14572266 13.23907227 83.47894531 12.75048828 83.82226562 C10.60783855 85.32385304 8.46026667 86.81824182 6.3125 88.3125 C5.56613281 88.83714844 4.81976563 89.36179687 4.05078125 89.90234375 C2.97763672 90.64677734 2.97763672 90.64677734 1.8828125 91.40625 C1.22297363 91.86708984 0.56313477 92.32792969 -0.11669922 92.80273438 C-1.8125 93.8125 -1.8125 93.8125 -3.8125 93.8125 C-4.4725 94.4725 -5.1325 95.1325 -5.8125 95.8125 C-8.16954746 91.85587719 -10.52337559 87.89734792 -12.875 83.9375 C-13.23197968 83.33647461 -13.58895935 82.73544922 -13.95675659 82.11621094 C-19.95286397 72.0141226 -25.85584946 61.86251219 -31.67407227 51.65673828 C-35.08308638 45.70354783 -38.62970308 39.88282179 -42.39086914 34.14477539 C-46.01192852 28.20419832 -46.29439797 21.58872922 -46.8125 14.8125 C-45.80574219 14.52761719 -44.79898438 14.24273437 -43.76171875 13.94921875 C-41.23363046 13.22827135 -38.72102034 12.47784264 -36.20703125 11.70703125 C-35.02496094 11.34996094 -33.84289062 10.99289063 -32.625 10.625 C-30.84029297 10.07779297 -30.84029297 10.07779297 -29.01953125 9.51953125 C-26.02479603 8.85930339 -24.61438753 8.7209458 -21.8125 9.8125 C-26.76372136 14.86687181 -31.7538175 19.76342009 -37.18359375 24.3046875 C-39.0482874 25.91290045 -39.0482874 25.91290045 -40.8125 28.8125 C-40.27882813 28.63074219 -39.74515625 28.44898437 -39.1953125 28.26171875 C-34.95826168 26.83226389 -30.71016342 25.444499 -26.4375 24.125 C-25.62539063 23.87363281 -24.81328125 23.62226562 -23.9765625 23.36328125 C-21.8125 22.8125 -21.8125 22.8125 -18.8125 22.8125 C-18.8125 22.1525 -18.8125 21.4925 -18.8125 20.8125 C-19.78832031 21.1734375 -20.76414062 21.534375 -21.76953125 21.90625 C-23.05459569 22.37525162 -24.33975704 22.84398779 -25.625 23.3125 C-26.26759766 23.55097656 -26.91019531 23.78945313 -27.57226562 24.03515625 C-30.46183739 25.08318746 -32.71326061 25.8125 -35.8125 25.8125 C-33.49214628 20.12763339 -28.33935236 16.73345058 -23.8125 12.8125 C-23.20148437 12.24144531 -22.59046875 11.67039062 -21.9609375 11.08203125 C-18.41024515 7.8317821 -18.41024515 7.8317821 -15.875 7.75 C-12.78858663 9.33997052 -9.79561893 11.03410218 -6.8125 12.8125 C-9.4525 10.8325 -12.0925 8.8525 -14.8125 6.8125 C-10.70227691 0.38761711 -7.42192981 -0.19240344 0 0 Z M-5.8125 13.8125 C-5.8125 14.8025 -5.8125 15.7925 -5.8125 16.8125 C-6.67875 16.93625 -7.545 17.06 -8.4375 17.1875 C-11.70763853 17.79308121 -14.68506899 18.69556035 -17.8125 19.8125 C-17.8125 20.4725 -17.8125 21.1325 -17.8125 21.8125 C-16.20816191 21.33390759 -14.60403584 20.85460442 -13 20.375 C-12.10667969 20.10816406 -11.21335937 19.84132813 -10.29296875 19.56640625 C-8.45776945 19.00862127 -6.63216274 18.41905425 -4.8125 17.8125 C-4.8125 20.7825 -4.8125 23.7525 -4.8125 26.8125 C-4.4825 26.8125 -4.1525 26.8125 -3.8125 26.8125 C-3.8125 23.5125 -3.8125 20.2125 -3.8125 16.8125 C-1.1725 17.4725 1.4675 18.1325 4.1875 18.8125 C4.5175 18.1525 4.8475 17.4925 5.1875 16.8125 C3.73043274 16.30882243 2.27179904 15.80967444 0.8125 15.3125 C-0.40566406 14.89484375 -0.40566406 14.89484375 -1.6484375 14.46875 C-3.75459242 13.71576695 -3.75459242 13.71576695 -5.8125 13.8125 Z M15.1875 19.8125 C18.08209074 23.02331851 18.08209074 23.02331851 22.1875 24.8125 C18.5575 28.4425 14.9275 32.0725 11.1875 35.8125 C14.31012518 36.14078283 14.31012518 36.14078283 16.44921875 33.84375 C17.24972656 33.0084375 18.05023438 32.173125 18.875 31.3125 C19.68324219 30.4771875 20.49148437 29.641875 21.32421875 28.78125 C21.93910156 28.1315625 22.55398437 27.481875 23.1875 26.8125 C26.85536393 28.31599377 28.87660393 30.44978792 31.4375 33.4375 C32.14390625 34.25476562 32.8503125 35.07203125 33.578125 35.9140625 C34.10921875 36.54054688 34.6403125 37.16703125 35.1875 37.8125 C35.1875 33.83193852 33.745267 32.7965615 31.1875 29.8125 C27.1875 25.14583333 27.1875 25.14583333 27.1875 21.8125 C21.2475 20.8225 21.2475 20.8225 15.1875 19.8125 Z M31.1875 21.8125 C30.8575 22.4725 30.5275 23.1325 30.1875 23.8125 C32.08325251 23.83971176 33.97911979 23.85899136 35.875 23.875 C37.45861328 23.89240234 37.45861328 23.89240234 39.07421875 23.91015625 C41.91160262 23.82115425 44.4313919 23.46189838 47.1875 22.8125 C47.1875 22.4825 47.1875 22.1525 47.1875 21.8125 C41.9075 21.8125 36.6275 21.8125 31.1875 21.8125 Z M47.1875 24.8125 C46.8575 26.1325 46.5275 27.4525 46.1875 28.8125 C47.5075 27.8225 48.8275 26.8325 50.1875 25.8125 C49.1975 25.4825 48.2075 25.1525 47.1875 24.8125 Z M-3.8125 28.8125 C-3.8125 31.1225 -3.8125 33.4325 -3.8125 35.8125 C-3.4825 35.8125 -3.1525 35.8125 -2.8125 35.8125 C-2.8125 33.5025 -2.8125 31.1925 -2.8125 28.8125 C-3.1425 28.8125 -3.4725 28.8125 -3.8125 28.8125 Z M47.1875 28.8125 C48.1875 31.8125 48.1875 31.8125 48.1875 31.8125 Z M54.1875 29.8125 C54.1875 30.4725 54.1875 31.1325 54.1875 31.8125 C56.14677063 33.5268618 58.14630212 35.19655168 60.1875 36.8125 C60.8475 36.4825 61.5075 36.1525 62.1875 35.8125 C61.2354279 34.80653703 60.27562654 33.80788437 59.3125 32.8125 C58.51199219 31.9771875 58.51199219 31.9771875 57.6953125 31.125 C56.26925012 29.59364478 56.26925012 29.59364478 54.1875 29.8125 Z M-37.8125 31.8125 C-35.53504211 34.30232535 -33.18914762 35.91618997 -30.25 37.5625 C-29.46496094 38.01109375 -28.67992187 38.4596875 -27.87109375 38.921875 C-27.19175781 39.21578125 -26.51242188 39.5096875 -25.8125 39.8125 C-25.1525 39.4825 -24.4925 39.1525 -23.8125 38.8125 C-25.76769384 37.64057953 -27.7267539 36.4751071 -29.6875 35.3125 C-30.77804688 34.6628125 -31.86859375 34.013125 -32.9921875 33.34375 C-35.57057672 31.65345147 -35.57057672 31.65345147 -37.8125 31.8125 Z M10.1875 36.8125 C9.50042969 37.49957031 8.81335937 38.18664063 8.10546875 38.89453125 C4.46614583 42.53385417 0.82682292 46.17317708 -2.8125 49.8125 C-2.4825 50.8025 -2.1525 51.7925 -1.8125 52.8125 C-0.4925 52.4825 0.8275 52.1525 2.1875 51.8125 C1.5275 51.1525 0.8675 50.4925 0.1875 49.8125 C3.8175 46.1825 7.4475 42.5525 11.1875 38.8125 C10.8575 38.1525 10.5275 37.4925 10.1875 36.8125 Z M-2.8125 37.8125 C-2.8125 40.7825 -2.8125 43.7525 -2.8125 46.8125 C-2.4825 46.8125 -2.1525 46.8125 -1.8125 46.8125 C-1.8125 43.8425 -1.8125 40.8725 -1.8125 37.8125 C-2.1425 37.8125 -2.4725 37.8125 -2.8125 37.8125 Z M36.1875 37.8125 C36.8475 38.4725 37.5075 39.1325 38.1875 39.8125 C38.1875 39.1525 38.1875 38.4925 38.1875 37.8125 C37.5275 37.8125 36.8675 37.8125 36.1875 37.8125 Z M48.1875 37.8125 C48.10590426 41.97388263 48.20501476 45.7597484 49.1875 49.8125 C48.1975 49.4825 47.2075 49.1525 46.1875 48.8125 C47.4964572 51.93447478 47.4964572 51.93447478 50.1875 53.8125 C51.41352512 50.13442463 50.89045577 47.93006073 50.25 44.125 C50.05535156 42.94550781 49.86070313 41.76601563 49.66015625 40.55078125 C49.50417969 39.64714844 49.34820312 38.74351563 49.1875 37.8125 C48.8575 37.8125 48.5275 37.8125 48.1875 37.8125 Z M-19.8125 41.8125 C-16.97819547 45.0667015 -15.12642226 46.3331753 -10.8125 46.8125 C-12.74504772 44.7879262 -14.44408688 43.39144208 -16.8125 41.8125 C-17.8025 41.8125 -18.7925 41.8125 -19.8125 41.8125 Z M61.1875 49.8125 C61.1875 50.4725 61.1875 51.1325 61.1875 51.8125 C61.8475 51.4825 62.5075 51.1525 63.1875 50.8125 C62.5275 50.4825 61.8675 50.1525 61.1875 49.8125 Z M2.1875 51.8125 C2.1875 52.1425 2.1875 52.4725 2.1875 52.8125 C5.4875 52.8125 8.7875 52.8125 12.1875 52.8125 C12.1875 52.4825 12.1875 52.1525 12.1875 51.8125 C8.8875 51.8125 5.5875 51.8125 2.1875 51.8125 Z M59.1875 50.8125 C57.2075 51.8025 57.2075 51.8025 55.1875 52.8125 C55.5175 53.4725 55.8475 54.1325 56.1875 54.8125 C57.5075 54.1525 58.8275 53.4925 60.1875 52.8125 C59.8575 52.1525 59.5275 51.4925 59.1875 50.8125 Z M12.1875 52.8125 C12.1875 53.1425 12.1875 53.4725 12.1875 53.8125 C15.4875 53.8125 18.7875 53.8125 22.1875 53.8125 C22.1875 53.4825 22.1875 53.1525 22.1875 52.8125 C18.8875 52.8125 15.5875 52.8125 12.1875 52.8125 Z M24.1875 53.8125 C24.1875 54.1425 24.1875 54.4725 24.1875 54.8125 C32.23677976 56.11151921 40.02509432 57.15103295 48.1875 56.8125 C48.1875 57.4725 48.1875 58.1325 48.1875 58.8125 C46.2075 59.8025 46.2075 59.8025 44.1875 60.8125 C47.55777852 60.8125 48.25452696 60.31425992 50.875 58.375 C51.49761719 57.92253906 52.12023437 57.47007813 52.76171875 57.00390625 C53.23222656 56.61074219 53.70273438 56.21757813 54.1875 55.8125 C54.1875 55.4825 54.1875 55.1525 54.1875 54.8125 C44.15474089 54.01557162 34.25104218 53.68402925 24.1875 53.8125 Z M-2.8125 54.8125 C-1.8125 57.8125 -1.8125 57.8125 -1.8125 57.8125 Z M-2.8125 59.8125 C-1.8125 63.8125 -1.8125 63.8125 -1.8125 63.8125 Z M39.5625 64.3125 C38.77875 65.1375 37.995 65.9625 37.1875 66.8125 C40.84066671 65.56273244 41.96815836 65.14151247 44.1875 61.8125 C41.82471264 61.58261494 41.82471264 61.58261494 39.5625 64.3125 Z M35.1875 66.8125 C34.8575 67.4725 34.5275 68.1325 34.1875 68.8125 C35.1775 68.4825 36.1675 68.1525 37.1875 67.8125 C36.5275 67.4825 35.8675 67.1525 35.1875 66.8125 Z M32.1875 68.8125 C27.2375 72.4425 22.2875 76.0725 17.1875 79.8125 C20.46997431 79.8125 21.01316967 79.48173327 23.54296875 77.625 C24.16494141 77.17382812 24.78691406 76.72265625 25.42773438 76.2578125 C26.07033203 75.78085938 26.71292969 75.30390625 27.375 74.8125 C28.35629883 74.09707031 28.35629883 74.09707031 29.35742188 73.3671875 C30.97207682 72.18860725 32.58040497 71.00136818 34.1875 69.8125 C33.5275 69.4825 32.8675 69.1525 32.1875 68.8125 Z M-3.8125 75.8125 C-3.8125 78.1225 -3.8125 80.4325 -3.8125 82.8125 C-3.4825 82.8125 -3.1525 82.8125 -2.8125 82.8125 C-2.8125 80.5025 -2.8125 78.1925 -2.8125 75.8125 C-3.1425 75.8125 -3.4725 75.8125 -3.8125 75.8125 Z " fill="#A68A4E" transform="translate(51.8125,9.1875)"/>
<path d="M0 0 C12.93681523 0.42346367 26.44366208 2.94172678 37 11 C37.796875 13.1875 37.796875 13.1875 38 15 C38.99 15 39.98 15 41 15 C42.796875 16.6875 42.796875 16.6875 44.75 19 C45.44738281 19.81855469 46.14476562 20.63710938 46.86328125 21.48046875 C47.56839844 22.31191406 48.27351563 23.14335938 49 24 C51.82192549 27.09178212 51.82192549 27.09178212 54.65234375 30.17578125 C56.09582286 32.12970805 56.58591628 33.62557057 57 36 C56.01 36.495 56.01 36.495 55 37 C56.98 38.32 58.96 39.64 61 41 C60.67 41.99 60.34 42.98 60 44 C56.4375 45.1875 56.4375 45.1875 53 46 C53 46.66 53 47.32 53 48 C54.65 47.67 56.3 47.34 58 47 C56.0139462 49.93004234 54.41747399 51.56581707 51.25 53.125 C45.91131995 55.92229186 41.00855998 59.28090735 36.05371094 62.69775391 C31.20841758 66 31.20841758 66 29 66 C29 66.66 29 67.32 29 68 C27.30810547 68.79664062 27.30810547 68.79664062 25.58203125 69.609375 C19.78390212 72.50652346 14.58261954 76.23722489 9.27148438 79.9296875 C8.50513672 80.45304687 7.73878906 80.97640625 6.94921875 81.515625 C6.26174561 81.99290039 5.57427246 82.47017578 4.8659668 82.96191406 C3 84 3 84 0 84 C6.90161975 78.12741353 14.22878834 73.02633805 21.72314453 67.94970703 C28.90285422 63.08511639 35.97124096 58.07951102 43 53 C42.21197998 52.94448975 41.42395996 52.88897949 40.61206055 52.83178711 C36.74116655 52.55737149 32.8705083 52.27979449 29 52 C28.25445862 51.94612122 27.50891724 51.89224243 26.74078369 51.83673096 C21.9264426 51.48700529 17.1131658 51.12523615 12.30053711 50.75268555 C10.62239896 50.62440867 8.9440017 50.4994833 7.26538086 50.37768555 C4.80772501 50.19883927 2.35115845 50.00880593 -0.10546875 49.81640625 C-0.85539597 49.76424454 -1.60532318 49.71208282 -2.37797546 49.65834045 C-6.01624805 49.36175747 -7.89891176 49.06739216 -11 47 C-7.37 43.37 -3.74 39.74 0 36 C-1.65 37.32 -3.3 38.64 -5 40 C-5.66 40 -6.32 40 -7 40 C-7 32.41 -7 24.82 -7 17 C-4.03 17 -1.06 17 2 17 C2 16.34 2 15.68 2 15 C1.34 15 0.68 15 0 15 C-1.23689062 12.52621876 -1.13310087 10.82084683 -1.125 8.0625 C-1.12757812 7.18722656 -1.13015625 6.31195312 -1.1328125 5.41015625 C-1 3 -1 3 0 0 Z M5 17 C7.89459074 20.21081851 7.89459074 20.21081851 12 22 C8.37 25.63 4.74 29.26 1 33 C4.12262518 33.32828283 4.12262518 33.32828283 6.26171875 31.03125 C7.06222656 30.1959375 7.86273438 29.360625 8.6875 28.5 C9.49574219 27.6646875 10.30398437 26.829375 11.13671875 25.96875 C11.75160156 25.3190625 12.36648437 24.669375 13 24 C16.66786393 25.50349377 18.68910393 27.63728792 21.25 30.625 C21.95640625 31.44226562 22.6628125 32.25953125 23.390625 33.1015625 C23.92171875 33.72804688 24.4528125 34.35453125 25 35 C25 31.01943852 23.557767 29.9840615 21 27 C17 22.33333333 17 22.33333333 17 19 C11.06 18.01 11.06 18.01 5 17 Z M21 19 C20.67 19.66 20.34 20.32 20 21 C21.89575251 21.02721176 23.79161979 21.04649136 25.6875 21.0625 C27.27111328 21.07990234 27.27111328 21.07990234 28.88671875 21.09765625 C31.72410262 21.00865425 34.2438919 20.64939838 37 20 C37 19.67 37 19.34 37 19 C31.72 19 26.44 19 21 19 Z M37 22 C36.67 23.32 36.34 24.64 36 26 C37.32 25.01 38.64 24.02 40 23 C39.01 22.67 38.02 22.34 37 22 Z M37 26 C38 29 38 29 38 29 Z M44 27 C44 27.66 44 28.32 44 29 C45.95927063 30.7143618 47.95880212 32.38405168 50 34 C50.66 33.67 51.32 33.34 52 33 C51.0479279 31.99403703 50.08812654 30.99538437 49.125 30 C48.32449219 29.1646875 48.32449219 29.1646875 47.5078125 28.3125 C46.08175012 26.78114478 46.08175012 26.78114478 44 27 Z M26 35 C26.66 35.66 27.32 36.32 28 37 C28 36.34 28 35.68 28 35 C27.34 35 26.68 35 26 35 Z M38 35 C37.91840426 39.16138263 38.01751476 42.9472484 39 47 C38.01 46.67 37.02 46.34 36 46 C37.3089572 49.12197478 37.3089572 49.12197478 40 51 C41.22602512 47.32192463 40.70295577 45.11756073 40.0625 41.3125 C39.86785156 40.13300781 39.67320313 38.95351563 39.47265625 37.73828125 C39.31667969 36.83464844 39.16070312 35.93101563 39 35 C38.67 35 38.34 35 38 35 Z M51 47 C51 47.66 51 48.32 51 49 C51.66 48.67 52.32 48.34 53 48 C52.34 47.67 51.68 47.34 51 47 Z M49 48 C47.02 48.99 47.02 48.99 45 50 C45.33 50.66 45.66 51.32 46 52 C47.32 51.34 48.64 50.68 50 50 C49.67 49.34 49.34 48.68 49 48 Z " fill="#D6C27B" transform="translate(62,12)"/>
<path d="M0 0 C2.30226614 0.8387438 4.26081136 1.86294375 6.3515625 3.140625 C7.05796875 3.56085937 7.764375 3.98109375 8.4921875 4.4140625 C9.02328125 4.86007813 9.554375 5.30609375 10.1015625 5.765625 C10.1015625 6.755625 10.1015625 7.745625 10.1015625 8.765625 C8.66602225 9.27122408 7.2280423 9.7698999 5.7890625 10.265625 C4.98855469 10.5440625 4.18804687 10.8225 3.36328125 11.109375 C1.1015625 11.765625 1.1015625 11.765625 -1.8984375 11.765625 C-1.8984375 12.425625 -1.8984375 13.085625 -1.8984375 13.765625 C-1.21136719 13.476875 -0.52429688 13.188125 0.18359375 12.890625 C1.08464844 12.519375 1.98570313 12.148125 2.9140625 11.765625 C3.80738281 11.394375 4.70070312 11.023125 5.62109375 10.640625 C8.1015625 9.765625 8.1015625 9.765625 11.1015625 9.765625 C11.7615625 19.995625 12.4215625 30.225625 13.1015625 40.765625 C6.38817076 39.64672638 6.38817076 39.64672638 2.8515625 37.203125 C0.21153242 35.24914926 0.21153242 35.24914926 -2.8984375 34.765625 C-2.5684375 36.085625 -2.2384375 37.405625 -1.8984375 38.765625 C0.0815625 39.095625 2.0615625 39.425625 4.1015625 39.765625 C4.0809375 40.735 4.0603125 41.704375 4.0390625 42.703125 C3.74537751 45.64028395 3.74537751 45.64028395 5.1015625 46.765625 C5.39572952 49.64786751 5.6183964 52.50067899 5.7890625 55.390625 C5.84900391 56.18597656 5.90894531 56.98132813 5.97070312 57.80078125 C6.2791094 62.94651876 5.80567286 66.89487279 4.1015625 71.765625 C2.29101562 71.5559082 2.29101562 71.5559082 0.1015625 70.765625 C-1.44726562 68.76635742 -1.44726562 68.76635742 -2.9296875 66.12109375 C-3.4875293 65.14293701 -4.04537109 64.16478027 -4.62011719 63.15698242 C-5.20696289 62.09970947 -5.79380859 61.04243652 -6.3984375 59.953125 C-7.64206012 57.76496017 -8.886873 55.57747143 -10.1328125 53.390625 C-10.75865234 52.28460938 -11.38449219 51.17859375 -12.02929688 50.0390625 C-14.83037876 45.13351053 -17.73154057 40.2904326 -20.6484375 35.453125 C-21.14923828 34.61869873 -21.65003906 33.78427246 -22.16601562 32.92456055 C-24.0273132 29.83005626 -25.89479819 26.77108396 -27.8984375 23.765625 C-29.84390563 18.15809921 -30.44720797 12.66723233 -30.8984375 6.765625 C-29.89167969 6.48074219 -28.88492187 6.19585937 -27.84765625 5.90234375 C-25.31956796 5.18139635 -22.80695784 4.43096764 -20.29296875 3.66015625 C-19.11089844 3.30308594 -17.92882812 2.94601563 -16.7109375 2.578125 C-15.52113281 2.21332031 -14.33132812 1.84851563 -13.10546875 1.47265625 C-10.11073353 0.81242839 -8.70032503 0.6740708 -5.8984375 1.765625 C-10.84965886 6.81999681 -15.839755 11.71654509 -21.26953125 16.2578125 C-23.1342249 17.86602545 -23.1342249 17.86602545 -24.8984375 20.765625 C-24.36476563 20.58386719 -23.83109375 20.40210937 -23.28125 20.21484375 C-19.04419918 18.78538889 -14.79610092 17.397624 -10.5234375 16.078125 C-9.71132813 15.82675781 -8.89921875 15.57539062 -8.0625 15.31640625 C-5.8984375 14.765625 -5.8984375 14.765625 -2.8984375 14.765625 C-2.8984375 14.105625 -2.8984375 13.445625 -2.8984375 12.765625 C-3.87425781 13.1265625 -4.85007812 13.4875 -5.85546875 13.859375 C-7.14053319 14.32837662 -8.42569454 14.79711279 -9.7109375 15.265625 C-10.35353516 15.50410156 -10.99613281 15.74257813 -11.65820312 15.98828125 C-14.54777489 17.03631246 -16.79919811 17.765625 -19.8984375 17.765625 C-17.57808378 12.08075839 -12.42528986 8.68657558 -7.8984375 4.765625 C-7.28742187 4.19457031 -6.67640625 3.62351562 -6.046875 3.03515625 C-2.40658495 -0.29710925 -2.40658495 -0.29710925 0 0 Z M-21.8984375 23.765625 C-19.62097961 26.25545035 -17.27508512 27.86931497 -14.3359375 29.515625 C-13.55089844 29.96421875 -12.76585937 30.4128125 -11.95703125 30.875 C-11.27769531 31.16890625 -10.59835938 31.4628125 -9.8984375 31.765625 C-9.2384375 31.435625 -8.5784375 31.105625 -7.8984375 30.765625 C-9.85363134 29.59370453 -11.8126914 28.4282321 -13.7734375 27.265625 C-14.86398438 26.6159375 -15.95453125 25.96625 -17.078125 25.296875 C-19.65651422 23.60657647 -19.65651422 23.60657647 -21.8984375 23.765625 Z " fill="#C5AC69" transform="translate(35.8984375,17.234375)"/>
<path d="M0 0 C3.53399895 1.47842909 5.55745517 3.44062779 8.0625 6.3125 C8.73410156 7.07175781 9.40570313 7.83101562 10.09765625 8.61328125 C11.98105037 10.97622542 13.44957525 13.41179093 15 16 C16.5467275 17.77629046 18.1539251 19.46536312 19.79296875 21.15625 C21.35548759 23.54301018 21.0885756 25.19997922 21 28 C11.38895555 28.11611771 1.9010035 27.81245825 -7.6875 27.125 C-8.93466797 27.04636719 -10.18183594 26.96773437 -11.46679688 26.88671875 C-12.65724609 26.80292969 -13.84769531 26.71914063 -15.07421875 26.6328125 C-16.67656372 26.52283936 -16.67656372 26.52283936 -18.3112793 26.41064453 C-21 26 -21 26 -24 24 C-16 16 -8 8 0 0 Z " fill="#D7C67F" transform="translate(75,35)"/>
<path d="M0 0 C13.75022459 -0.36885848 27.31312253 0.7688359 41 2 C41 2.66 41 3.32 41 4 C39.41796875 5.33764648 39.41796875 5.33764648 37.1875 6.87109375 C36.36636719 7.44069824 35.54523438 8.01030273 34.69921875 8.59716797 C33.80847656 9.20447754 32.91773438 9.81178711 32 10.4375 C31.09894531 11.0577002 30.19789062 11.67790039 29.26953125 12.31689453 C27.4156219 13.59260119 25.56013775 14.86602215 23.703125 16.13720703 C21.20264108 17.86035482 18.72277469 19.60850584 16.25 21.37109375 C15.52941406 21.880354 14.80882813 22.38961426 14.06640625 22.91430664 C12.71545494 23.86926194 11.36888296 24.83045092 10.02734375 25.79858398 C6.63979958 28.16887597 5.26111354 29 1 29 C-0.30433619 23.06372979 -0.11086318 17.16667748 -0.0625 11.125 C-0.05798828 10.05507812 -0.05347656 8.98515625 -0.04882812 7.8828125 C-0.03709749 5.25515014 -0.02068228 2.62760462 0 0 Z " fill="#EBDD92" transform="translate(59,64)"/>
<path d="M0 0 C2.10448938 0.14109986 4.2085877 0.28804175 6.3125 0.4375 C8.07013672 0.55931641 8.07013672 0.55931641 9.86328125 0.68359375 C13 1 13 1 16 2 C16 2.99 16 3.98 16 5 C16.66 5.33 17.32 5.66 18 6 C18 6.66 18 7.32 18 8 C18.66 8 19.32 8 20 8 C20 11.3 20 14.6 20 18 C15.71 18 11.42 18 7 18 C8.98 18.99 10.96 19.98 13 21 C9.14324805 25.71380794 5.0281064 30.10825067 0.75 34.4375 C0.21858398 34.98180664 -0.31283203 35.52611328 -0.86035156 36.08691406 C-2.20129248 37.43127793 -3.59681004 38.72074448 -5 40 C-5.66 40 -6.32 40 -7 40 C-7 32.41 -7 24.82 -7 17 C-4.03 17 -1.06 17 2 17 C2 16.34 2 15.68 2 15 C1.34 15 0.68 15 0 15 C-1.23689062 12.52621876 -1.13310087 10.82084683 -1.125 8.0625 C-1.12757812 7.18722656 -1.13015625 6.31195312 -1.1328125 5.41015625 C-1 3 -1 3 0 0 Z " fill="#CFBE79" transform="translate(62,12)"/>
<path d="M0 0 C2.31 0.33 4.62 0.66 7 1 C7.20625 1.804375 7.4125 2.60875 7.625 3.4375 C8.07875 4.283125 8.5325 5.12875 9 6 C12.05272465 6.89830839 12.05272465 6.89830839 15 7 C14.979375 7.969375 14.95875 8.93875 14.9375 9.9375 C14.64381501 12.87465895 14.64381501 12.87465895 16 14 C16.29416702 16.88224251 16.5168339 19.73505399 16.6875 22.625 C16.74744141 23.42035156 16.80738281 24.21570313 16.86914062 25.03515625 C17.1775469 30.18089376 16.70411036 34.12924779 15 39 C13.21582031 38.81884766 13.21582031 38.81884766 11 38 C8.16446975 34.40424195 6.02749891 30.34210684 3.75 26.375 C2.77546875 24.75271484 2.77546875 24.75271484 1.78125 23.09765625 C1.16765625 22.04191406 0.5540625 20.98617187 -0.078125 19.8984375 C-0.63918945 18.93599121 -1.20025391 17.97354492 -1.77832031 16.98193359 C-3.46945526 12.85413139 -3.61372899 9.07133533 -2.34375 4.78515625 C-1.5625 3.19010417 -0.78125 1.59505208 0 0 Z " fill="#F1E596" transform="translate(25,50)"/>
<path d="M0 0 C0.96808594 0.0103125 1.93617187 0.020625 2.93359375 0.03125 C8.33969486 0.14893383 13.01247703 0.73411463 18.125 2.5 C18.125 2.83 18.125 3.16 18.125 3.5 C17.01125 3.45875 15.8975 3.4175 14.75 3.375 C11.08133975 3.08878141 11.08133975 3.08878141 9.125 5.5 C8.88160449 8.39883083 8.88160449 8.39883083 9 11.625 C9.02707031 13.26855469 9.02707031 13.26855469 9.0546875 14.9453125 C9.07789062 15.78835937 9.10109375 16.63140625 9.125 17.5 C9.785 17.83 10.445 18.16 11.125 18.5 C8.155 18.83 5.185 19.16 2.125 19.5 C2.18147705 20.20608398 2.2379541 20.91216797 2.29614258 21.63964844 C2.5370094 24.84172938 2.73765265 28.04510858 2.9375 31.25 C3.02708984 32.36117187 3.11667969 33.47234375 3.20898438 34.6171875 C3.38281097 37.65457851 3.49825485 40.47966522 3.125 43.5 C0.63671875 46.265625 0.63671875 46.265625 -1.875 47.5 C-2.97445892 37.48707052 -2.97555982 27.55598201 -2.875 17.5 C-1.555 17.17 -0.235 16.84 1.125 16.5 C0.568125 16.28085937 0.01125 16.06171875 -0.5625 15.8359375 C-6.33837205 13.43582851 -11.03890222 10.45321345 -15.875 6.5 C-11.63813078 -0.40991546 -7.74331549 -0.32732641 0 0 Z " fill="#C1A35F" transform="translate(52.875,9.5)"/>
<path d="M0 0 C7.40053524 0.60660125 7.40053524 0.60660125 10 2.3125 C11 4 11 4 11 8 C11.99 7.67 12.98 7.34 14 7 C14 9.66666667 14 12.33333333 14 15 C11.94921875 15.22786458 9.8984375 15.45572917 7.84765625 15.68359375 C5.98859771 15.81886614 5.98859771 15.81886614 5 17 C9.95 17.33 14.9 17.66 20 18 C20 24.93 20 31.86 20 39 C14.08536585 36.63414634 14.08536585 36.63414634 12 34 C12 33.34 12 32.68 12 32 C11.34 32 10.68 32 10 32 C9.731875 31.195625 9.46375 30.39125 9.1875 29.5625 C8.795625 28.716875 8.40375 27.87125 8 27 C7.01 26.67 6.02 26.34 5 26 C3.578125 24.4765625 3.578125 24.4765625 2.25 22.625 C1.80140625 22.01914062 1.3528125 21.41328125 0.890625 20.7890625 C0 19 0 19 1 16 C-0.65 16 -2.3 16 -4 16 C-4 15.67 -4 15.34 -4 15 C-1.36 15 1.28 15 4 15 C4 11.7 4 8.4 4 5 C3.01 5.33 2.02 5.66 1 6 C0.67 4.02 0.34 2.04 0 0 Z " fill="#B79E61" transform="translate(78,15)"/>
<path d="M0 0 C-4.93008875 5.03279893 -9.90862716 9.92216387 -15.2734375 14.4921875 C-16.92296942 15.93272895 -18.47079574 17.43326925 -20 19 C-10.89230026 26.1957605 -10.89230026 26.1957605 0 29 C0 29.99 0 30.98 0 32 C-1.65 31.67 -3.3 31.34 -5 31 C-5.12117188 31.69867188 -5.24234375 32.39734375 -5.3671875 33.1171875 C-5.53476562 34.02726562 -5.70234375 34.93734375 -5.875 35.875 C-6.03742187 36.77992187 -6.19984375 37.68484375 -6.3671875 38.6171875 C-7 41 -7 41 -9 43 C-9.60328125 41.98679688 -10.2065625 40.97359375 -10.828125 39.9296875 C-11.63533669 38.57807723 -12.44263286 37.22651741 -13.25 35.875 C-13.64574219 35.20984375 -14.04148437 34.5446875 -14.44921875 33.859375 C-16.30718656 30.75260915 -18.19455874 27.7120941 -20.22265625 24.7109375 C-24.14339457 18.73073443 -24.46860509 11.950086 -25 5 C-23.99324219 4.71511719 -22.98648437 4.43023437 -21.94921875 4.13671875 C-19.42113046 3.41577135 -16.90852034 2.66534264 -14.39453125 1.89453125 C-13.21246094 1.53746094 -12.03039062 1.18039063 -10.8125 0.8125 C-9.62269531 0.44769531 -8.43289062 0.08289063 -7.20703125 -0.29296875 C-4.21229603 -0.95319661 -2.80188753 -1.0915542 0 0 Z " fill="#C2A763" transform="translate(30,19)"/>
<path d="M0 0 C4.02967261 1.21827311 7.60158555 2.47546355 11 5 C11.8125 7.1875 11.8125 7.1875 12 9 C12.99 9 13.98 9 15 9 C16.796875 10.6875 16.796875 10.6875 18.75 13 C19.44738281 13.81855469 20.14476563 14.63710938 20.86328125 15.48046875 C21.56839844 16.31191406 22.27351563 17.14335938 23 18 C25.82192549 21.09178212 25.82192549 21.09178212 28.65234375 24.17578125 C30.09582286 26.12970805 30.58591628 27.62557057 31 30 C29.68 30.33 28.36 30.66 27 31 C26.443125 30.0925 25.88625 29.185 25.3125 28.25 C23.1106201 25.15546609 21.05610275 23.20718532 18 21 C17.67 21.66 17.34 22.32 17 23 C16.34 22.34 15.68 21.68 15 21 C14.90912109 22.49853516 14.90912109 22.49853516 14.81640625 24.02734375 C14.73261719 25.31769531 14.64882812 26.60804687 14.5625 27.9375 C14.48128906 29.22527344 14.40007812 30.51304688 14.31640625 31.83984375 C14 35 14 35 13 36 C12.95936168 37.66617115 12.957279 39.33388095 13 41 C7.6267769 38.52005088 3.02937631 35.33932834 -1 31 C-0.67 30.34 -0.34 29.68 0 29 C0.53625 29.598125 1.0725 30.19625 1.625 30.8125 C4.23427934 33.21578361 6.81516677 34.47738795 10 36 C9.96519531 34.87980469 9.93039063 33.75960937 9.89453125 32.60546875 C9.86639161 31.13282749 9.83909163 29.66017002 9.8125 28.1875 C9.77479492 27.08051758 9.77479492 27.08051758 9.73632812 25.95117188 C9.66165501 20.45025238 9.66165501 20.45025238 11.51171875 17.98828125 C12.00285156 17.66214844 12.49398437 17.33601563 13 17 C12.01 17 11.02 17 10 17 C10 16.34 10 15.68 10 15 C5.27685687 14.22887459 0.78478822 13.90235126 -4 14 C-4 13.34 -4 12.68 -4 12 C-2.02 11.67 -0.04 11.34 2 11 C2.66 9.02 3.32 7.04 4 5 C2.68 5.33 1.36 5.66 0 6 C-0.33 5.01 -0.66 4.02 -1 3 C-0.34 3 0.32 3 1 3 C0.67 2.01 0.34 1.02 0 0 Z M11 20 C12 23 12 23 12 23 Z " fill="#AAA475" transform="translate(88,18)"/>
<path d="M0 0 C2.31 0 4.62 0 7 0 C7.02505615 0.67579102 7.0501123 1.35158203 7.07592773 2.04785156 C7.19210742 5.1154168 7.31473437 8.18269158 7.4375 11.25 C7.47681641 12.31347656 7.51613281 13.37695312 7.55664062 14.47265625 C7.61948242 16.00986328 7.61948242 16.00986328 7.68359375 17.578125 C7.72025146 18.52075195 7.75690918 19.46337891 7.79467773 20.43457031 C7.92133211 22.96547991 7.92133211 22.96547991 8.58227539 25.21386719 C9 27 9 27 8 29 C8.99 29.33 9.98 29.66 11 30 C9.23569031 31.34195372 7.4633209 32.67331668 5.6875 34 C4.20830078 35.11375 4.20830078 35.11375 2.69921875 36.25 C0 38 0 38 -3 38 C-3.60997874 25.16785468 -1.76284127 12.68057983 0 0 Z " fill="#A57D40" transform="translate(52,64)"/>
<path d="M0 0 C0.33 0.66 0.66 1.32 1 2 C0.52949219 3.01191406 0.05898437 4.02382813 -0.42578125 5.06640625 C-2.39453186 9.38824524 -2.34390568 13.25736083 -2.1875 17.9375 C-2.17396484 18.71673828 -2.16042969 19.49597656 -2.14648438 20.29882812 C-2.11150224 22.19952404 -2.05770959 24.09985834 -2 26 C-4.93832645 25.88618103 -7.8751065 25.75943449 -10.8125 25.625 C-12.06256836 25.57859375 -12.06256836 25.57859375 -13.33789062 25.53125 C-14.14033203 25.49257813 -14.94277344 25.45390625 -15.76953125 25.4140625 C-16.87711792 25.36693115 -16.87711792 25.36693115 -18.00708008 25.31884766 C-20 25 -20 25 -23 23 C-15.33333333 15.33333333 -7.66666667 7.66666667 0 0 Z " fill="#DAC67C" transform="translate(74,36)"/>
<path d="M0 0 C0 5.94 0 11.88 0 18 C-8.99543667 15.81928808 -16.16366211 11.75374388 -24 7 C-23.67 6.34 -23.34 5.68 -23 5 C-20.62101497 4.21392639 -18.29947175 3.54593136 -15.875 2.9375 C-15.22273438 2.76412109 -14.57046875 2.59074219 -13.8984375 2.41210938 C-4.58270474 0 -4.58270474 0 0 0 Z " fill="#EEE596" transform="translate(35,32)"/>
<path d="M0 0 C5.28 0 10.56 0 16 0 C16 0.33 16 0.66 16 1 C13.69 1 11.38 1 9 1 C7.86504217 7.5260075 6.87609505 14.62828516 9 21 C10.65 21.33 12.3 21.66 14 22 C11.24800963 24.95584151 8.62469707 27.18765147 5 29 C3.68 29 2.36 29 1 29 C-0.30433619 23.06372979 -0.11086318 17.16667748 -0.0625 11.125 C-0.05798828 10.05507812 -0.05347656 8.98515625 -0.04882812 7.8828125 C-0.03709764 5.25518411 -0.01916391 2.62758469 0 0 Z " fill="#C5A763" transform="translate(59,64)"/>
<path d="M0 0 C1.32 0.33 2.64 0.66 4 1 C3.34 1 2.68 1 2 1 C2.0721875 2.16015625 2.144375 3.3203125 2.21875 4.515625 C3.7051218 29.18093354 3.7051218 29.18093354 2 35 C10.69303439 35.78265261 19.23461993 36.10880233 27.95654297 35.875 C31.85984057 35.81283733 34.69020251 35.8508781 38 38 C39.32 38.66 40.64 39.32 42 40 C29.46 39.34 16.92 38.68 4 38 C3.67 42.29 3.34 46.58 3 51 C2.13027634 61.54539933 2.13027634 61.54539933 1.44140625 63.94921875 C0.85848597 66.65747668 1.14308967 69.00217026 1.4375 71.75 C1.53933594 72.73484375 1.64117187 73.7196875 1.74609375 74.734375 C1.82988281 75.48203125 1.91367187 76.2296875 2 77 C1.34 77 0.68 77 0 77 C-3.21922464 67.34232607 -1.93344227 49.49676646 0.60546875 39.65234375 C0.73566406 39.10707031 0.86585937 38.56179687 1 38 C-0.64504011 35.53243984 -1.80299352 35.05039701 -4.6875 34.3125 C-5.450625 34.209375 -6.21375 34.10625 -7 34 C-7 33.01 -7 32.02 -7 31 C-4.36 31.33 -1.72 31.66 1 32 C1 30.35 1 28.7 1 27 C0.67 27 0.34 27 0 27 C0 23.7 0 20.4 0 17 C-0.33 17 -0.66 17 -1 17 C-0.67 11.39 -0.34 5.78 0 0 Z M1 43 C2 47 2 47 2 47 Z " fill="#362511" transform="translate(48,26)"/>
<path d="M0 0 C0.33 0 0.66 0 1 0 C1.36279456 1.28926992 1.71496698 2.58153272 2.0625 3.875 C2.25972656 4.59429687 2.45695312 5.31359375 2.66015625 6.0546875 C3 8 3 8 2 10 C3.9490625 9.814375 3.9490625 9.814375 5.9375 9.625 C6.66839844 9.55539063 7.39929688 9.48578125 8.15234375 9.4140625 C8.76207031 9.27742188 9.37179688 9.14078125 10 9 C10.33 8.34 10.66 7.68 11 7 C13.32156597 6.59270772 15.6568787 6.25561323 18 6 C16.0139462 8.93004234 14.41747399 10.56581707 11.25 12.125 C5.91131995 14.92229186 1.00855998 18.28090735 -3.94628906 21.69775391 C-8.79158242 25 -8.79158242 25 -11 25 C-11 25.66 -11 26.32 -11 27 C-12.12792969 27.53109375 -13.25585938 28.0621875 -14.41796875 28.609375 C-20.21609788 31.50652346 -25.41738046 35.23722489 -30.72851562 38.9296875 C-31.87803711 39.71472656 -31.87803711 39.71472656 -33.05078125 40.515625 C-33.73825439 40.99290039 -34.42572754 41.47017578 -35.1340332 41.96191406 C-37 43 -37 43 -40 43 C-33.09838025 37.12741353 -25.77121166 32.02633805 -18.27685547 26.94970703 C-11.09714578 22.08511639 -4.02875904 17.07951102 3 12 C-3.93 11.505 -3.93 11.505 -11 11 C-11 10.67 -11 10.34 -11 10 C-9.35 10 -7.7 10 -6 10 C-6.66 7.36 -7.32 4.72 -8 2 C-5.66666667 4.33333333 -3.33333333 6.66666667 -1 9 C0.4783226 6.04335481 0.06032783 3.25770263 0 0 Z " fill="#A5956A" transform="translate(102,53)"/>
<path d="M0 0 C9 1 9 1 12 2 C12.65757629 5.84316811 12.80728554 9.17019896 12 13 C9.14461484 16.915809 5.86410686 20.07974875 2 23 C1.34 23 0.68 23 0 23 C0 15.41 0 7.82 0 0 Z " fill="#D4C37E" transform="translate(55,29)"/>
<path d="M0 0 C7.26 0.33 14.52 0.66 22 1 C22 1.66 22 2.32 22 3 C20.22753906 4.48046875 20.22753906 4.48046875 17.765625 6.1875 C16.43917969 7.11175781 16.43917969 7.11175781 15.0859375 8.0546875 C14.15007812 8.69664063 13.21421875 9.33859375 12.25 10 C11.32960938 10.64195313 10.40921875 11.28390625 9.4609375 11.9453125 C1.98073306 17.12725123 1.98073306 17.12725123 -2 19 C-2 17.68 -2 16.36 -2 15 C-1.34 15 -0.68 15 0 15 C0 10.05 0 5.1 0 0 Z " fill="#DECB84" transform="translate(78,65)"/>
<path d="M0 0 C0.99 0.33 1.98 0.66 3 1 C3.6953125 2.92578125 3.6953125 2.92578125 4.125 5.3125 C4.34542969 6.48232422 4.34542969 6.48232422 4.5703125 7.67578125 C4.71210937 8.44277344 4.85390625 9.20976563 5 10 C5.18046875 10.68578125 5.3609375 11.3715625 5.546875 12.078125 C6.66747858 16.83102986 5.94477441 21.27612794 5 26 C1.37 26 -2.26 26 -6 26 C-5.01 25.67 -4.02 25.34 -3 25 C-3.11859375 23.94941406 -3.2371875 22.89882813 -3.359375 21.81640625 C-4.15504068 13.63575544 -4.66398267 7.20615348 0 0 Z " fill="#F1E698" transform="translate(75,35)"/>
<path d="M0 0 C1.6254308 0.14095064 3.25034051 0.28792087 4.875 0.4375 C5.77992187 0.51871094 6.68484375 0.59992187 7.6171875 0.68359375 C10 1 10 1 12 2 C12.11720277 7.03971921 11.59191155 11.22426535 10 16 C2.53458242 16.36715168 2.53458242 16.36715168 0.25390625 14.80078125 C-1.4079153 12.41417771 -1.33584874 10.88451775 -1.25 8 C-1.23453125 7.13375 -1.2190625 6.2675 -1.203125 5.375 C-1 3 -1 3 0 0 Z " fill="#F2E69B" transform="translate(62,12)"/>
<path d="M0 0 C0.99 0.33 1.98 0.66 3 1 C2.979375 1.969375 2.95875 2.93875 2.9375 3.9375 C2.64381501 6.87465895 2.64381501 6.87465895 4 8 C4.29416702 10.88224251 4.5168339 13.73505399 4.6875 16.625 C4.74744141 17.42035156 4.80738281 18.21570313 4.86914062 19.03515625 C5.1775469 24.18089376 4.70411036 28.12924779 3 33 C0.34795104 32.63165987 -0.73840056 32.3132309 -2.484375 30.22265625 C-2.90203125 29.50980469 -3.3196875 28.79695313 -3.75 28.0625 C-4.17796875 27.35222656 -4.6059375 26.64195313 -5.046875 25.91015625 C-6 24 -6 24 -6 22 C-5.01 22 -4.02 22 -3 22 C-0.99540646 17.99081291 -0.91104506 14.44774701 -1 10 C-1.07085731 6.45713464 -1.04583593 3.39896677 0 0 Z " fill="#C9B069" transform="translate(37,56)"/>
<path d="M0 0 C3.63 0 7.26 0 11 0 C11.33 6.6 11.66 13.2 12 20 C6.08536585 17.63414634 6.08536585 17.63414634 4 15 C4 14.34 4 13.68 4 13 C3.34 13 2.68 13 2 13 C1.34 8.71 0.68 4.42 0 0 Z " fill="#AA8E53" transform="translate(86,34)"/>
<path d="M0 0 C-15.74374898 16.07174375 -15.74374898 16.07174375 -21 17 C-21.08082094 15.04233719 -21.13910778 13.08373272 -21.1875 11.125 C-21.22230469 10.03445312 -21.25710937 8.94390625 -21.29296875 7.8203125 C-21.19628906 6.88960937 -21.09960938 5.95890625 -21 5 C-17.70212712 2.80141808 -14.86193643 1.91684826 -11.0625 0.8125 C-9.83660156 0.44769531 -8.61070313 0.08289063 -7.34765625 -0.29296875 C-4.29101247 -0.93853762 -2.84569773 -1.1197357 0 0 Z " fill="#E6DA92" transform="translate(30,19)"/>
<path d="M0 0 C0.639375 -0.185625 1.27875 -0.37125 1.9375 -0.5625 C4 -1 4 -1 8 1 C3.545 1.495 3.545 1.495 -1 2 C-0.94352295 2.70608398 -0.8870459 3.41216797 -0.82885742 4.13964844 C-0.5879906 7.34172938 -0.38734735 10.54510858 -0.1875 13.75 C-0.05311523 15.41675781 -0.05311523 15.41675781 0.08398438 17.1171875 C0.25781097 20.15457851 0.37325485 22.97966522 0 26 C-2.48828125 28.765625 -2.48828125 28.765625 -5 30 C-6.09945892 19.98707052 -6.10055982 10.05598201 -6 0 C-3 -1 -3 -1 0 0 Z " fill="#AD8A4C" transform="translate(56,27)"/>
<path d="M0 0 C0.66 10.23 1.32 20.46 2 31 C-3.70053971 30.04991005 -5.0205731 29.628301 -9 26 C-7.68 26 -6.36 26 -5 26 C-5 26.66 -5 27.32 -5 28 C-4.34 28 -3.68 28 -3 28 C-3.165 27.01 -3.33 26.02 -3.5 25 C-4.39377749 18.05119475 -4.07635992 10.99117499 -4 4 C-5.32 3.34 -6.64 2.68 -8 2 C-5.09399739 0.74335022 -3.20395416 0 0 0 Z " fill="#A27C3F" transform="translate(47,27)"/>
<path d="M0 0 C1.98 0.99 3.96 1.98 6 3 C5.34 17.19 4.68 31.38 4 46 C1.16671013 43.16671013 0.2808625 41.64553172 -1 38 C0.32 38.33 1.64 38.66 3 39 C2.85738906 36.81228756 2.71075539 34.62483718 2.5625 32.4375 C2.44068359 30.61025391 2.44068359 30.61025391 2.31640625 28.74609375 C2.11531936 26.36532422 1.8501409 23.98845104 1.5 21.625 C0.89963754 17.27237217 0.65307683 12.94825148 0.4375 8.5625 C0.39431641 7.73556641 0.35113281 6.90863281 0.30664062 6.05664062 C0.20161967 4.03790451 0.10041441 2.01897049 0 0 Z " fill="#9E773D" transform="translate(43,59)"/>
<path d="M0 0 C9.37593985 2.83458647 9.37593985 2.83458647 12.3125 6.75 C13.26539512 9.86856585 13.12452507 12.76234825 13 16 C12.01 16.33 11.02 16.66 10 17 C10 16.34 10 15.68 10 15 C5.27685687 14.22887459 0.78478822 13.90235126 -4 14 C-4 13.34 -4 12.68 -4 12 C-2.02 11.67 -0.04 11.34 2 11 C2.66 9.02 3.32 7.04 4 5 C2.68 5.33 1.36 5.66 0 6 C-0.33 5.01 -0.66 4.02 -1 3 C-0.34 3 0.32 3 1 3 C0.67 2.01 0.34 1.02 0 0 Z " fill="#997A48" transform="translate(88,18)"/>
<path d="M0 0 C3.44211218 2.25517695 4.92678804 4.49148746 7 8 C8.5647343 9.7537896 10.15707752 11.46861525 11.79296875 13.15625 C13 15 13 15 13 20 C8.38 20 3.76 20 -1 20 C0.32 19.01 1.64 18.02 3 17 C3.48466366 13.80197224 3.48466366 13.80197224 3.25 10.3125 C3.21390625 9.13300781 3.1778125 7.95351563 3.140625 6.73828125 C3.09421875 5.83464844 3.0478125 4.93101563 3 4 C1.68 4.33 0.36 4.66 -1 5 C-0.67 3.35 -0.34 1.7 0 0 Z " fill="#A98D57" transform="translate(83,43)"/>
<path d="M0 0 C1.9375 0.6875 1.9375 0.6875 4 2 C4.75 4.625 4.75 4.625 5 7 C4.01 6.34 3.02 5.68 2 5 C1.93941406 5.99902344 1.87882812 6.99804688 1.81640625 8.02734375 C1.73261719 9.31769531 1.64882812 10.60804687 1.5625 11.9375 C1.48128906 13.22527344 1.40007812 14.51304688 1.31640625 15.83984375 C1 19 1 19 0 20 C-0.04063832 21.66617115 -0.042721 23.33388095 0 25 C-5.3732231 22.52005088 -9.97062369 19.33932834 -14 15 C-13.67 14.34 -13.34 13.68 -13 13 C-12.46375 13.598125 -11.9275 14.19625 -11.375 14.8125 C-8.76572066 17.21578361 -6.18483323 18.47738795 -3 20 C-3.03480469 18.89140625 -3.06960937 17.7828125 -3.10546875 16.640625 C-3.13361349 15.17709852 -3.16091292 13.71355561 -3.1875 12.25 C-3.21263672 11.52039062 -3.23777344 10.79078125 -3.26367188 10.0390625 C-3.30981636 6.65513396 -3.25324128 4.42141443 -1.48828125 1.484375 C-0.75158203 0.74960937 -0.75158203 0.74960937 0 0 Z M-2 4 C-1 7 -1 7 -1 7 Z " fill="#47371F" transform="translate(101,34)"/>
<path d="M0 0 C0.33 0 0.66 0 1 0 C0.98428955 0.98919434 0.9685791 1.97838867 0.95239258 2.99755859 C0.8981654 6.66137577 0.86367664 10.32515737 0.83520508 13.98925781 C0.82010186 15.57623251 0.79961777 17.16316537 0.77368164 18.75 C0.73736405 21.02875073 0.72028977 23.30695058 0.70703125 25.5859375 C0.68380547 26.65320572 0.68380547 26.65320572 0.66011047 27.74203491 C0.62453492 29.95754404 0.62453492 29.95754404 1 33 C1.99 33.66 2.98 34.32 4 35 C0.375 38 0.375 38 -3 38 C-3.60997874 25.16785468 -1.76284127 12.68057983 0 0 Z " fill="#966E37" transform="translate(52,64)"/>
<path d="M0 0 C0.66 0.33 1.32 0.66 2 1 C1.49575817 3.01696732 0.99533738 5.01492038 0.375 7 C-0.20889422 9.34639815 -0.20889422 9.34639815 1 13 C3.64 13.66 6.28 14.32 9 15 C9 15.33 9 15.66 9 16 C6.06167355 15.88618103 3.1248935 15.75943449 0.1875 15.625 C-1.06256836 15.57859375 -1.06256836 15.57859375 -2.33789062 15.53125 C-3.14033203 15.49257813 -3.94277344 15.45390625 -4.76953125 15.4140625 C-5.87711792 15.36693115 -5.87711792 15.36693115 -7.00708008 15.31884766 C-9 15 -9 15 -12 13 C-11.21753906 12.22914062 -10.43507812 11.45828125 -9.62890625 10.6640625 C-8.60663943 9.65117427 -7.58451119 8.63814616 -6.5625 7.625 C-6.04623047 7.11710937 -5.52996094 6.60921875 -4.99804688 6.0859375 C-2.142867 3.31431064 -2.142867 3.31431064 0 0 Z " fill="#8D7241" transform="translate(63,46)"/>
<path d="M0 0 C5.94 0.33 11.88 0.66 18 1 C18 1.66 18 2.32 18 3 C16.53125 4.23681641 16.53125 4.23681641 14.5 5.6015625 C13.778125 6.09140625 13.05625 6.58125 12.3125 7.0859375 C11.549375 7.59382813 10.78625 8.10171875 10 8.625 C8.8553125 9.3984375 8.8553125 9.3984375 7.6875 10.1875 C5.79568048 11.46447818 3.89980102 12.73493968 2 14 C1.34 13.01 0.68 12.02 0 11 C0.9590625 10.443125 0.9590625 10.443125 1.9375 9.875 C4.63858072 7.41947207 4.68407005 5.55421195 5 2 C3.35 1.67 1.7 1.34 0 1 C0 0.67 0 0.34 0 0 Z " fill="#B49B5E" transform="translate(82,65)"/>
<path d="M0 0 C0.99 0 1.98 0 3 0 C3.03758423 1.01368652 3.03758423 1.01368652 3.07592773 2.04785156 C3.19210742 5.1154168 3.31473437 8.18269158 3.4375 11.25 C3.47681641 12.31347656 3.51613281 13.37695312 3.55664062 14.47265625 C3.59853516 15.49746094 3.64042969 16.52226563 3.68359375 17.578125 C3.72025146 18.52075195 3.75690918 19.46337891 3.79467773 20.43457031 C3.92133211 22.96547991 3.92133211 22.96547991 4.58227539 25.21386719 C5 27 5 27 4 29 C4.99 29.33 5.98 29.66 7 30 C5.35 30.33 3.7 30.66 2 31 C0.42589988 26.82237097 -0.24126552 23.40275519 -0.1953125 18.9453125 C-0.18886719 17.83671875 -0.18242188 16.728125 -0.17578125 15.5859375 C-0.15902344 14.44382812 -0.14226563 13.30171875 -0.125 12.125 C-0.11597656 10.9596875 -0.10695312 9.794375 -0.09765625 8.59375 C-0.07417432 5.72895423 -0.04133141 2.86458465 0 0 Z " fill="#B08D4C" transform="translate(56,64)"/>
<path d="M0 0 C3.15468641 0.38776354 5.56389479 1.73349126 8.25 3.375 C8.95640625 3.79523437 9.6628125 4.21546875 10.390625 4.6484375 C11.18726563 5.31746094 11.18726563 5.31746094 12 6 C12 6.99 12 7.98 12 9 C10.56445975 9.50559908 9.1264798 10.0042749 7.6875 10.5 C6.88699219 10.7784375 6.08648437 11.056875 5.26171875 11.34375 C3 12 3 12 0 12 C0.020625 11.05125 0.04125 10.1025 0.0625 9.125 C0.22551826 6.09333717 0.22551826 6.09333717 -1 4 C-1.99 4 -2.98 4 -4 4 C-2.25 1.9375 -2.25 1.9375 0 0 Z " fill="#B8A76C" transform="translate(34,17)"/>
<path d="M0 0 C1.9375 0.375 1.9375 0.375 4 1 C4.33 1.66 4.66 2.32 5 3 C4.01 3.99 3.02 4.98 2 6 C2.66 6 3.32 6 4 6 C3.85831863 7.43791516 3.71148957 8.8753237 3.5625 10.3125 C3.48128906 11.11300781 3.40007812 11.91351563 3.31640625 12.73828125 C3 15 3 15 2 18 C2.66 18.66 3.32 19.32 4 20 C2.35 20.33 0.7 20.66 -1 21 C-3.03832848 13.9066169 -2.39769551 6.8933746 0 0 Z " fill="#DFCE82" transform="translate(68,65)"/>
<path d="M0 0 C0.50015625 0.15339844 1.0003125 0.30679687 1.515625 0.46484375 C4.90374862 1.19467541 8.29949589 1.3633179 11.75 1.5625 C14.1425 1.706875 16.535 1.85125 19 2 C19 8.6 19 15.2 19 22 C18.67 22 18.34 22 18 22 C18 15.73 18 9.46 18 3 C14.37 3 10.74 3 7 3 C7.66 6.63 8.32 10.26 9 14 C8.34 13.67 7.68 13.34 7 13 C7 12.34 7 11.68 7 11 C6.01 10.67 5.02 10.34 4 10 C2.578125 8.4765625 2.578125 8.4765625 1.25 6.625 C0.80140625 6.01914062 0.3528125 5.41328125 -0.109375 4.7890625 C-1 3 -1 3 0 0 Z " fill="#947E52" transform="translate(79,31)"/>
<path d="M0 0 C1.02673828 0.02707031 2.05347656 0.05414063 3.11132812 0.08203125 C5.63887576 0.15256746 8.16210043 0.25106571 10.6875 0.375 C10.6875 0.705 10.6875 1.035 10.6875 1.375 C4.7475 1.375 -1.1925 1.375 -7.3125 1.375 C-7.3125 2.035 -7.3125 2.695 -7.3125 3.375 C-6.6525 3.705 -5.9925 4.035 -5.3125 4.375 C-6.3025 4.87 -6.3025 4.87 -7.3125 5.375 C-7.3125 6.035 -7.3125 6.695 -7.3125 7.375 C-6.6525 8.035 -5.9925 8.695 -5.3125 9.375 C-5.3125 10.695 -5.3125 12.015 -5.3125 13.375 C-9.35670651 11.59554913 -12.77328487 8.97970327 -16.3125 6.375 C-12.04056539 -0.71696988 -7.85199174 -0.39184604 0 0 Z " fill="#8F7241" transform="translate(53.3125,9.625)"/>
<path d="M0 0 C0.99 0.33 1.98 0.66 3 1 C3.6875 3.0625 3.6875 3.0625 4 5 C4.99 5 5.98 5 7 5 C7.0271045 8.04172719 7.04688964 11.08320997 7.0625 14.125 C7.07087891 14.9809375 7.07925781 15.836875 7.08789062 16.71875 C7.10538306 21.26678411 6.93192358 25.52383164 6 30 C4.53515625 29.00390625 4.53515625 29.00390625 3 27 C2.66884478 24.25404922 2.49189894 21.68865967 2.4375 18.9375 C2.19583865 12.4498223 1.59889989 6.31798307 0 0 Z " fill="#D3BF78" transform="translate(30,51)"/>
<path d="M0 0 C2.33294775 -0.04241723 4.66702567 -0.04092937 7 0 C8 1 8 1 8.11352539 3.31665039 C8.10828857 4.31688232 8.10305176 5.31711426 8.09765625 6.34765625 C8.09443359 7.42724609 8.09121094 8.50683594 8.08789062 9.61914062 C8.07951172 10.75544922 8.07113281 11.89175781 8.0625 13.0625 C8.05798828 14.20267578 8.05347656 15.34285156 8.04882812 16.51757812 C8.03699747 19.34510351 8.0205141 22.1725264 8 25 C7.34 25 6.68 25 6 25 C6 24.34 6 23.68 6 23 C4.700625 23.0928125 4.700625 23.0928125 3.375 23.1875 C-0.44199033 22.97544498 -2.71077536 21.87955693 -6 20 C-2.61981469 18.95994298 0.4780279 18.91995518 4 19 C5.59412284 15.81175432 5.10174735 12.37103338 5.0625 8.875 C5.05798828 8.12089844 5.05347656 7.36679687 5.04882812 6.58984375 C5.03703499 4.72652873 5.01909942 2.86325445 5 1 C3.35 1 1.7 1 0 1 C0 0.67 0 0.34 0 0 Z " fill="#B08E4D" transform="translate(36,30)"/>
<path d="M0 0 C3.63 0 7.26 0 11 0 C11 0.33 11 0.66 11 1 C8.69 1 6.38 1 4 1 C2.74767073 8.20089331 1.43179487 16.30961538 5 23 C4.01 23.33 3.02 23.66 2 24 C2 23.01 2 22.02 2 21 C1.34 20.67 0.68 20.34 0 20 C-2.04567455 16.10414198 -2.13776596 13.20406311 -1.6875 8.875 C-1.58824219 7.84117188 -1.48898438 6.80734375 -1.38671875 5.7421875 C-1 3 -1 3 0 0 Z " fill="#CEB872" transform="translate(64,64)"/>
<path d="M0 0 C0 0.99 0 1.98 0 3 C-1.65 3.66 -3.3 4.32 -5 5 C-5 5.66 -5 6.32 -5 7 C-6.12792969 7.53109375 -7.25585938 8.0621875 -8.41796875 8.609375 C-14.21609788 11.50652346 -19.41738046 15.23722489 -24.72851562 18.9296875 C-25.49486328 19.45304687 -26.26121094 19.97640625 -27.05078125 20.515625 C-28.08199097 21.23153809 -28.08199097 21.23153809 -29.1340332 21.96191406 C-31 23 -31 23 -34 23 C-6.96978852 0 -6.96978852 0 0 0 Z " fill="#A19D76" transform="translate(96,73)"/>
<path d="M0 0 C0.33 0 0.66 0 1 0 C1.06058594 1.24136719 1.12117188 2.48273437 1.18359375 3.76171875 C1.26803623 5.40365577 1.35268236 7.04558232 1.4375 8.6875 C1.47681641 9.50412109 1.51613281 10.32074219 1.55664062 11.16210938 C1.72585439 14.37717085 1.89183887 17.46555676 2.53125 20.625 C3.17281074 23.87557443 3.09342339 27.00369747 3.0625 30.3125 C3.05347656 31.56675781 3.04445313 32.82101563 3.03515625 34.11328125 C3.02355469 35.06589844 3.01195312 36.01851562 3 37 C1.35 36.67 -0.3 36.34 -2 36 C-2.33 34.68 -2.66 33.36 -3 32 C-2.34 32 -1.68 32 -1 32 C-1.00523682 31.10168457 -1.01047363 30.20336914 -1.01586914 29.27783203 C-1.03289725 25.94937501 -1.04544337 22.62096419 -1.05493164 19.29248047 C-1.05996474 17.8510668 -1.06679173 16.40965824 -1.07543945 14.96826172 C-1.08754983 12.89809915 -1.09323847 10.82800399 -1.09765625 8.7578125 C-1.10289307 7.5114502 -1.10812988 6.26508789 -1.11352539 4.98095703 C-1 2 -1 2 0 0 Z " fill="#AB8545" transform="translate(43,61)"/>
<path d="M0 0 C0.33 3.63 0.66 7.26 1 11 C2.32 10.67 3.64 10.34 5 10 C5.79953138 13.28696233 6.09658936 14.71023192 5 18 C5.33 18.66 5.66 19.32 6 20 C5.34 20.66 4.68 21.32 4 22 C2.64709936 19.82267553 1.31840559 17.635585 0 15.4375 C-0.57234375 14.52387695 -0.57234375 14.52387695 -1.15625 13.59179688 C-3.73308794 9.24338285 -4.42658785 6.17904313 -4 1 C-1 0 -1 0 0 0 Z " fill="#D0C888" transform="translate(26,56)"/>
<path d="M0 0 C1.2065625 0.0309375 1.2065625 0.0309375 2.4375 0.0625 C1.4475 0.5575 1.4475 0.5575 0.4375 1.0625 C0.4375 5.0225 0.4375 8.9825 0.4375 13.0625 C1.0975 13.3925 1.7575 13.7225 2.4375 14.0625 C2.4375 14.7225 2.4375 15.3825 2.4375 16.0625 C4.39897874 17.45188077 6.39916576 18.7885411 8.4375 20.0625 C6.7875 21.3825 5.1375 22.7025 3.4375 24.0625 C-1.68288497 17.06464054 -3.34746509 9.69697857 -3.5625 1.0625 C-2.5625 0.0625 -2.5625 0.0625 0 0 Z " fill="#8A7247" transform="translate(8.5625,22.9375)"/>
<path d="M0 0 C1.91635217 -0.05423638 3.83314925 -0.09289963 5.75 -0.125 C7.35101563 -0.15980469 7.35101563 -0.15980469 8.984375 -0.1953125 C11.92470106 -0.00487687 13.52361878 0.47329896 16 2 C14.88625 1.95875 13.7725 1.9175 12.625 1.875 C8.95633975 1.58878141 8.95633975 1.58878141 7 4 C6.53837573 6.43252661 6.53837573 6.43252661 6.375 9.125 C6.30023438 10.03507812 6.22546875 10.94515625 6.1484375 11.8828125 C6.09945312 12.58148438 6.05046875 13.28015625 6 14 C5.01 14 4.02 14 3 14 C3 11.69 3 9.38 3 7 C1.68 6.67 0.36 6.34 -1 6 C-0.649375 5.38125 -0.29875 4.7625 0.0625 4.125 C0.371875 3.42375 0.68125 2.7225 1 2 C0.67 1.34 0.34 0.68 0 0 Z " fill="#CDBB77" transform="translate(55,11)"/>
<path d="M0 0 C3.465 1.98 3.465 1.98 7 4 C6.01 4.66 5.02 5.32 4 6 C3.69528794 8.57810299 3.58142229 10.86399418 3.625 13.4375 C3.60759766 14.4594043 3.60759766 14.4594043 3.58984375 15.50195312 C3.60779222 18.55618481 3.62158933 20.5100067 5.5234375 22.97265625 C6.01070313 23.31167969 6.49796875 23.65070312 7 24 C5.35 24.33 3.7 24.66 2 25 C-0.21462689 16.59628191 -0.20705918 8.6274658 0 0 Z " fill="#A68A51" transform="translate(102,38)"/>
<path d="M0 0 C0.66 0 1.32 0 2 0 C2.06058594 1.14597656 2.12117188 2.29195313 2.18359375 3.47265625 C2.26806989 5.00261297 2.35271427 6.53256041 2.4375 8.0625 C2.47681641 8.81466797 2.51613281 9.56683594 2.55664062 10.34179688 C2.87509048 16.00040592 3.19692289 21.59076867 5 27 C5.66 27.33 6.32 27.66 7 28 C5.02 28.33 3.04 28.66 1 29 C-0.30433619 23.06372979 -0.11086318 17.16667748 -0.0625 11.125 C-0.05798828 10.05507812 -0.05347656 8.98515625 -0.04882812 7.8828125 C-0.03709749 5.25515014 -0.02068228 2.62760462 0 0 Z " fill="#BB9E5C" transform="translate(59,64)"/>
<path d="M0 0 C1.65 0.33 3.3 0.66 5 1 C5.02715383 2.74991334 5.04646551 4.49994945 5.0625 6.25 C5.07410156 7.22453125 5.08570312 8.1990625 5.09765625 9.203125 C5.01195577 11.65758678 4.70706066 13.66168914 4 16 C2.0625 15.625 2.0625 15.625 0 15 C-1.23689062 12.52621876 -1.13310087 10.82084683 -1.125 8.0625 C-1.12757812 7.18722656 -1.13015625 6.31195312 -1.1328125 5.41015625 C-1 3 -1 3 0 0 Z " fill="#E6D88A" transform="translate(62,12)"/>
<path d="M0 0 C1.96875 0.0234375 1.96875 0.0234375 4.5 0.375 C10.62638545 1.08282939 16.65040371 1.03827051 22.8046875 0.87451172 C26.750353 0.81382232 29.65642262 0.81410773 33 3 C34.32 3.66 35.64 4.32 37 5 C24.46 4.34 11.92 3.68 -1 3 C-1 4.98 -1 6.96 -1 9 C-1.33 9 -1.66 9 -2 9 C-2.125 5.625 -2.125 5.625 -2 2 C-1.34 1.34 -0.68 0.68 0 0 Z " fill="#52452B" transform="translate(53,61)"/>
<path d="M0 0 C0.66 0.33 1.32 0.66 2 1 C1.01 2.485 1.01 2.485 0 4 C0 5.32 0 6.64 0 8 C0.99 8.33 1.98 8.66 3 9 C1.06441401 9.67220351 -0.87354372 10.33758077 -2.8125 11 C-3.89144531 11.37125 -4.97039063 11.7425 -6.08203125 12.125 C-9 13 -9 13 -12 13 C-10.44997253 9.11602311 -7.99523379 6.97020381 -4.875 4.25 C-3.96492188 3.45078125 -3.05484375 2.6515625 -2.1171875 1.828125 C-1.06917969 0.92320313 -1.06917969 0.92320313 0 0 Z " fill="#86734D" transform="translate(28,22)"/>
<path d="M0 0 C0.598125 0.20625 1.19625 0.4125 1.8125 0.625 C1.1525 0.625 0.4925 0.625 -0.1875 0.625 C-0.4377157 3.54134129 -0.4377157 3.54134129 -0.1875 6.625 C0.8025 7.285 1.7925 7.945 2.8125 8.625 C0.5 11.125 0.5 11.125 -2.1875 13.625 C-3.1775 13.625 -4.1675 13.625 -5.1875 13.625 C-5.26832094 11.66733719 -5.32660778 9.70873272 -5.375 7.75 C-5.40980469 6.65945312 -5.44460938 5.56890625 -5.48046875 4.4453125 C-5.38378906 3.51460937 -5.28710938 2.58390625 -5.1875 1.625 C-2.1875 -0.375 -2.1875 -0.375 0 0 Z " fill="#A28753" transform="translate(14.1875,22.375)"/>
<path d="M0 0 C0.99 0.33 1.98 0.66 3 1 C2.69320312 1.78632812 2.38640625 2.57265625 2.0703125 3.3828125 C0.74247086 7.87033571 0.30187863 12.22832109 -0.125 16.875 C-0.21136719 17.75414063 -0.29773438 18.63328125 -0.38671875 19.5390625 C-0.59734307 21.69211108 -0.79952708 23.84598249 -1 26 C-2.65 26 -4.3 26 -6 26 C-5.01 25.67 -4.02 25.34 -3 25 C-3.11859375 23.94941406 -3.2371875 22.89882813 -3.359375 21.81640625 C-4.15504068 13.63575544 -4.66398267 7.20615348 0 0 Z " fill="#E2D68C" transform="translate(75,35)"/>
<path d="M0 0 C0.99 0.33 1.98 0.66 3 1 C3.22346404 3.85369619 3.42913552 6.70688498 3.625 9.5625 C3.68945312 10.36236328 3.75390625 11.16222656 3.8203125 11.98632812 C4.15846478 17.16428489 3.72394315 21.09794793 2 26 C1.855625 25.401875 1.71125 24.80375 1.5625 24.1875 C1.1127561 22.43849596 0.57107659 20.71322977 0 19 C-0.0806622 17.51876453 -0.10761193 16.03417796 -0.09765625 14.55078125 C-0.09443359 13.70322266 -0.09121094 12.85566406 -0.08789062 11.98242188 C-0.07951172 11.10134766 -0.07113281 10.22027344 -0.0625 9.3125 C-0.05798828 8.41982422 -0.05347656 7.52714844 -0.04882812 6.60742188 C-0.03704983 4.40488013 -0.02060164 2.20247401 0 0 Z " fill="#BE9F5C" transform="translate(38,63)"/>
<path d="M0 0 C0.66 0 1.32 0 2 0 C2.03738281 0.86882813 2.07476562 1.73765625 2.11328125 2.6328125 C2.52448963 11.28042899 2.52448963 11.28042899 6 19 C4.71034824 20.37562854 3.37310707 21.70766393 2 23 C1.34 23 0.68 23 0 23 C0 15.41 0 7.82 0 0 Z " fill="#CEB873" transform="translate(55,29)"/>
<path d="M0 0 C2.31 0 4.62 0 7 0 C7.33 2.97 7.66 5.94 8 9 C7.01 9 6.02 9 5 9 C4.67 9.99 4.34 10.98 4 12 C1.95780294 10.30820672 1.08206694 9.36272334 0.48828125 6.73828125 C0.43027344 5.93777344 0.37226562 5.13726562 0.3125 4.3125 C0.24675781 3.50425781 0.18101563 2.69601563 0.11328125 1.86328125 C0.07589844 1.24839844 0.03851563 0.63351563 0 0 Z " fill="#EBDC93" transform="translate(86,34)"/>
<path d="M0 0 C0 0.99 0 1.98 0 3 C-0.99 3.495 -0.99 3.495 -2 4 C-2 5.32 -2 6.64 -2 8 C-0.35 8.33 1.3 8.66 3 9 C3.33 9.99 3.66 10.98 4 12 C-1.96652354 10.42986223 -6.82909025 7.24970218 -12 4 C-11 2 -11 2 -9.2578125 1.3671875 C-8.55398437 1.20476563 -7.85015625 1.04234375 -7.125 0.875 C-6.07699219 0.62363281 -6.07699219 0.62363281 -5.0078125 0.3671875 C-3 0 -3 0 0 0 Z " fill="#917C4E" transform="translate(23,35)"/>
<path d="M0 0 C2.97 0.495 2.97 0.495 6 1 C6.5534764 3.07553648 7 4.84365964 7 7 C7.99 6.67 8.98 6.34 10 6 C10 8.33333333 10 10.66666667 10 13 C8.1875 13.625 8.1875 13.625 6 14 C5.01 13.34 4.02 12.68 3 12 C2.70703125 9.8359375 2.70703125 9.8359375 2.8125 7.375 C2.83957031 6.55773437 2.86664063 5.74046875 2.89453125 4.8984375 C2.92933594 4.27195312 2.96414062 3.64546875 3 3 C2.01 2.67 1.02 2.34 0 2 C0 1.34 0 0.68 0 0 Z " fill="#AD9055" transform="translate(82,16)"/>
<path d="M0 0 C0.639375 -0.185625 1.27875 -0.37125 1.9375 -0.5625 C4 -1 4 -1 8 1 C3.545 1.495 3.545 1.495 -1 2 C-1 8.27 -1 14.54 -1 21 C-1.33 21 -1.66 21 -2 21 C-2.33 14.4 -2.66 7.8 -3 1 C-3.66 1 -4.32 1 -5 1 C-5 6.61 -5 12.22 -5 18 C-5.33 18 -5.66 18 -6 18 C-6 12.06 -6 6.12 -6 0 C-3 -1 -3 -1 0 0 Z " fill="#8B7244" transform="translate(56,27)"/>
<path d="M0 0 C1.9375 0.75 1.9375 0.75 3.9375 2.75 C5.58741582 3.45710678 7.25312256 4.12943989 8.9375 4.75 C7.98328192 5.89926266 7.02397955 7.04430541 6.0625 8.1875 C5.52882813 8.82558594 4.99515625 9.46367188 4.4453125 10.12109375 C2.9375 11.75 2.9375 11.75 0.9375 12.75 C-0.293894 9.05581799 0.29317236 6.5443739 0.9375 2.75 C-2.0325 2.255 -2.0325 2.255 -5.0625 1.75 C-2.0625 -0.25 -2.0625 -0.25 0 0 Z " fill="#867547" transform="translate(66.0625,28.25)"/>
<path d="M0 0 C0.33 0 0.66 0 1 0 C1.36279456 1.28926992 1.71496698 2.58153272 2.0625 3.875 C2.25972656 4.59429687 2.45695312 5.31359375 2.66015625 6.0546875 C3 8 3 8 2 10 C3.32 10.33 4.64 10.66 6 11 C5.67 11.66 5.34 12.32 5 13 C4.21625 12.855625 3.4325 12.71125 2.625 12.5625 C-1.90242749 11.85996815 -6.43927072 11.42362505 -11 11 C-11 10.67 -11 10.34 -11 10 C-9.35 10 -7.7 10 -6 10 C-6.66 7.36 -7.32 4.72 -8 2 C-5.66666667 4.33333333 -3.33333333 6.66666667 -1 9 C0.4783226 6.04335481 0.06032783 3.25770263 0 0 Z " fill="#5C462A" transform="translate(102,53)"/>
<path d="M0 0 C1.65 0 3.3 0 5 0 C4.979375 0.78375 4.95875 1.5675 4.9375 2.375 C4.81315937 4.98114961 4.81315937 4.98114961 6 7 C5.34 7 4.68 7 4 7 C4 8.32 4 9.64 4 11 C6.97 11.495 6.97 11.495 10 12 C9.67 12.66 9.34 13.32 9 14 C6.69 13.67 4.38 13.34 2 13 C0.33700479 8.42676316 0 4.8553191 0 0 Z " fill="#AA8A50" transform="translate(46,11)"/>
<path d="M0 0 C3.74745501 2.14140286 5.62244732 4.99130928 7.44921875 8.79296875 C8.44452371 12.78124751 6.78821224 15.42357552 5 19 C4.34 18.67 3.68 18.34 3 18 C3 13.38 3 8.76 3 4 C1.68 4.33 0.36 4.66 -1 5 C-0.67 3.35 -0.34 1.7 0 0 Z " fill="#BCA667" transform="translate(83,43)"/>
<path d="M0 0 C0.33 1.32 0.66 2.64 1 4 C0.01 4 -0.98 4 -2 4 C-2 8.29 -2 12.58 -2 17 C-1.01 17 -0.02 17 1 17 C1 17.66 1 18.32 1 19 C-0.65 18.67 -2.3 18.34 -4 18 C-6.20045558 11.76537585 -6.20045558 11.76537585 -5.3125 8.375 C-1.52941176 1.52941176 -1.52941176 1.52941176 0 0 Z " fill="#B8A264" transform="translate(68,42)"/>
<path d="M0 0 C1.32 0.33 2.64 0.66 4 1 C4.10815225 2.76949095 4.18566083 4.54087487 4.25 6.3125 C4.29640625 7.29863281 4.3428125 8.28476562 4.390625 9.30078125 C4 12 4 12 0 15 C0 10.05 0 5.1 0 0 Z " fill="#D2C17D" transform="translate(63,30)"/>
<path d="M0 0 C3 1 3 1 4.1875 2.625 C5.27499354 5.80382728 5.1282071 8.66661533 5 12 C4.01 12.33 3.02 12.66 2 13 C2 12.34 2 11.68 2 11 C-2.72314313 10.22887459 -7.21521178 9.90235126 -12 10 C-12 9.34 -12 8.68 -12 8 C-5.565 7.505 -5.565 7.505 1 7 C0.67 4.69 0.34 2.38 0 0 Z " fill="#3D311F" transform="translate(96,22)"/>
<path d="M0 0 C2 3 2 3 1.625 6.1875 C1.41875 7.115625 1.2125 8.04375 1 9 C-0.98 9.33 -2.96 9.66 -5 10 C-5.33 8.35 -5.66 6.7 -6 5 C-4.02 3.35 -2.04 1.7 0 0 Z " fill="#EDE295" transform="translate(33,20)"/>
<path d="M0 0 C0 5.94 0 11.88 0 18 C-1.65 17.67 -3.3 17.34 -5 17 C-4.34 16.67 -3.68 16.34 -3 16 C-3 11.05 -3 6.1 -3 1 C-1 0 -1 0 0 0 Z " fill="#E3D389" transform="translate(35,32)"/>
<path d="M0 0 C4.03253283 0.43831879 6.45012971 2.16356178 9.875 4.3125 C9.875 4.6425 9.875 4.9725 9.875 5.3125 C5.60156908 5.67879408 3.38687196 4.72064077 -0.125 2.3125 C0.205 3.034375 0.535 3.75625 0.875 4.5 C1.88103529 7.32947427 2.04477402 9.34145466 1.875 12.3125 C-1.39439806 8.72670857 -2.7925012 6.18914905 -3.125 1.3125 C-2.125 0.3125 -2.125 0.3125 0 0 Z " fill="#968152" transform="translate(16.125,43.6875)"/>
<path d="M0 0 C0 0.66 0 1.32 0 2 C-0.99 2 -1.98 2 -3 2 C-2.814375 3.11375 -2.62875 4.2275 -2.4375 5.375 C-2 9 -2 9 -3 11 C-4.65 10.67 -6.3 10.34 -8 10 C-8.33 8.68 -8.66 7.36 -9 6 C-8.01 5.67 -7.02 5.34 -6 5 C-6 3.68 -6 2.36 -6 1 C-3.92446352 0.4465236 -2.15634036 0 0 0 Z " fill="#C5AE6D" transform="translate(29,33)"/>
<path d="M0 0 C2.64 0 5.28 0 8 0 C8 0.66 8 1.32 8 2 C6.217871 3.44074715 4.37339724 4.80510649 2.5 6.125 C0.96859375 7.21167969 0.96859375 7.21167969 -0.59375 8.3203125 C-1.3878125 8.87460938 -2.181875 9.42890625 -3 10 C-3.33 9.01 -3.66 8.02 -4 7 C-3.34 7 -2.68 7 -2 7 C-1.34 4.69 -0.68 2.38 0 0 Z " fill="#93784A" transform="translate(92,66)"/>
<path d="M0 0 C1.88045509 1.58805188 2.89020461 2.57339043 3.51171875 4.98828125 C4.06688463 12.32880788 4.09544003 19.64051343 4 27 C3.34 27 2.68 27 2 27 C1.20046862 23.71303767 0.90341064 22.28976808 2 19 C1.855625 18.29875 1.71125 17.5975 1.5625 16.875 C1.05319883 14.27190512 0.96061467 12.13444095 1 9.5 C1.04421789 6.18918544 0.83277626 3.22700801 0 0 Z " fill="#E4D68D" transform="translate(29,51)"/>
<path d="M0 0 C3.465 1.98 3.465 1.98 7 4 C6.67 4.99 6.34 5.98 6 7 C3.67793475 7.70491267 1.34406932 8.37212429 -1 9 C-1.33 9.66 -1.66 10.32 -2 11 C-2.33 9.35 -2.66 7.7 -3 6 C-2.01 6.33 -1.02 6.66 0 7 C0 4.69 0 2.38 0 0 Z " fill="#AC9860" transform="translate(116,49)"/>
<path d="M0 0 C-2.97 2.97 -5.94 5.94 -9 9 C-9.33 7.68 -9.66 6.36 -10 5 C-9.34 5 -8.68 5 -8 5 C-8 4.34 -8 3.68 -8 3 C-9.65 3 -11.3 3 -13 3 C-8.40950936 -0.06032709 -5.43883763 -1.35970941 0 0 Z " fill="#A59664" transform="translate(30,19)"/>
<path d="M0 0 C1.32 0.33 2.64 0.66 4 1 C4.11720277 6.03971921 3.59191155 10.22426535 2 15 C1.34 15 0.68 15 0 15 C0 10.05 0 5.1 0 0 Z " fill="#E7DD91" transform="translate(70,13)"/>
<path d="M0 0 C-0.33 0.99 -0.66 1.98 -1 3 C-3.765625 4.16796875 -3.765625 4.16796875 -7.25 5.1875 C-8.38953125 5.53167969 -9.5290625 5.87585938 -10.703125 6.23046875 C-13.62909513 6.91342623 -16.0176081 7.16257399 -19 7 C-16.44612397 4.44612397 -13.99273882 3.66911986 -10.625 2.375 C-9.48289062 1.92898438 -8.34078125 1.48296875 -7.1640625 1.0234375 C-4 0 -4 0 0 0 Z " fill="#746D53" transform="translate(38,11)"/>
<path d="M0 0 C2.31 0.66 4.62 1.32 7 2 C7 4.31 7 6.62 7 9 C5.02 9.99 5.02 9.99 3 11 C1.72746564 7.35206816 0.67170806 3.8063457 0 0 Z " fill="#CBB068" transform="translate(80,65)"/>
<path d="M0 0 C0.33 0 0.66 0 1 0 C1.33 4.95 1.66 9.9 2 15 C-3.70053971 14.04991005 -5.0205731 13.628301 -9 10 C-7.68 10 -6.36 10 -5 10 C-5 10.66 -5 11.32 -5 12 C-3.68 11.67 -2.36 11.34 -1 11 C-0.67 7.37 -0.34 3.74 0 0 Z " fill="#795D38" transform="translate(47,43)"/>
<path d="M0 0 C0.33 0 0.66 0 1 0 C2.82960294 7.20406158 3.78369884 13.64224229 2 21 C1.34 21 0.68 21 0 21 C0 14.07 0 7.14 0 0 Z " fill="#E9DD8D" transform="translate(78,40)"/>
<path d="M0 0 C0.66 0 1.32 0 2 0 C2.02693575 2.12493141 2.04636628 4.24995912 2.0625 6.375 C2.07410156 7.55835938 2.08570312 8.74171875 2.09765625 9.9609375 C2 13 2 13 1 15 C-0.98 14.34 -2.96 13.68 -5 13 C-4 11 -4 11 -2 9 C-1.01 9 -0.02 9 1 9 C0.67 8.34 0.34 7.68 0 7 C-0.04022391 4.6670134 -0.04320247 2.33293334 0 0 Z " fill="#C5B06C" transform="translate(93,34)"/>
<path d="M0 0 C2 2 2 2 2.1953125 5.2578125 C2.16050781 7.17207031 2.16050781 7.17207031 2.125 9.125 C2.10695313 10.40632813 2.08890625 11.68765625 2.0703125 13.0078125 C2.04710937 13.99523437 2.02390625 14.98265625 2 16 C0.35 15.67 -1.3 15.34 -3 15 C-3.33 13.68 -3.66 12.36 -4 11 C-3.01 11 -2.02 11 -1 11 C-0.67 7.37 -0.34 3.74 0 0 Z " fill="#9C7A42" transform="translate(44,82)"/>
<path d="M0 0 C0.33 0 0.66 0 1 0 C1.02505615 0.67579102 1.0501123 1.35158203 1.07592773 2.04785156 C1.19210742 5.1154168 1.31473437 8.18269158 1.4375 11.25 C1.47681641 12.31347656 1.51613281 13.37695312 1.55664062 14.47265625 C1.59853516 15.49746094 1.64042969 16.52226563 1.68359375 17.578125 C1.72025146 18.52075195 1.75690918 19.46337891 1.79467773 20.43457031 C1.92133211 22.96547991 1.92133211 22.96547991 2.58227539 25.21386719 C3 27 3 27 2 29 C2.99 29.33 3.98 29.66 5 30 C3.35 30.33 1.7 30.66 0 31 C0 20.77 0 10.54 0 0 Z " fill="#B29455" transform="translate(58,64)"/>
<path d="M0 0 C0.66 0.33 1.32 0.66 2 1 C1.67 8.26 1.34 15.52 1 23 C0.67 23 0.34 23 0 23 C-0.66 15.74 -1.32 8.48 -2 1 C-1.34 0.67 -0.68 0.34 0 0 Z " fill="#896535" transform="translate(47,61)"/>
<path d="M0 0 C0 4.29 0 8.58 0 13 C-3.34482235 9.65517765 -3.52853468 8.52606711 -4 4 C-4 3.01 -4 2.02 -4 1 C-1 0 -1 0 0 0 Z " fill="#C9BA7D" transform="translate(26,56)"/>
<path d="M0 0 C0.33 0 0.66 0 1 0 C1 5.94 1 11.88 1 18 C-5.48447308 16.1472934 -6.92891025 15.68792153 -11 11 C-10.67 10.34 -10.34 9.68 -10 9 C-9.46375 9.598125 -8.9275 10.19625 -8.375 10.8125 C-5.65897124 13.51677309 -5.65897124 13.51677309 0 16 C0 10.72 0 5.44 0 0 Z " fill="#7D6540" transform="translate(98,38)"/>
<path d="M0 0 C0.99 0 1.98 0 3 0 C3 4.29 3 8.58 3 13 C2.01 13.495 2.01 13.495 1 14 C-0.38226016 11.23547967 -0.09525387 8.9538637 -0.0625 5.875 C-0.05347656 4.77929688 -0.04445312 3.68359375 -0.03515625 2.5546875 C-0.02355469 1.71164063 -0.01195312 0.86859375 0 0 Z " fill="#F2E495" transform="translate(60,30)"/>
<path d="M0 0 C0.66 1.98 1.32 3.96 2 6 C0.54207116 6.05399736 -0.91642712 6.09279177 -2.375 6.125 C-3.18710938 6.14820313 -3.99921875 6.17140625 -4.8359375 6.1953125 C-7 6 -7 6 -9 4 C-2.25 0 -2.25 0 0 0 Z " fill="#D1C47E" transform="translate(77,24)"/>
<path d="M0 0 C0.99 0 1.98 0 3 0 C3 5.61 3 11.22 3 17 C2.34 17.33 1.68 17.66 1 18 C0.92652344 16.82630859 0.92652344 16.82630859 0.8515625 15.62890625 C0.77679687 14.61699219 0.70203125 13.60507812 0.625 12.5625 C0.55539063 11.55316406 0.48578125 10.54382813 0.4140625 9.50390625 C0.27742188 8.67761719 0.14078125 7.85132813 0 7 C-0.66 6.67 -1.32 6.34 -2 6 C-1.34 4.02 -0.68 2.04 0 0 Z " fill="#E5D98A" transform="translate(25,50)"/>
<path d="M0 0 C0 4.29 0 8.58 0 13 C-0.66 13 -1.32 13 -2 13 C-2 10.03 -2 7.06 -2 4 C-4.97 3.505 -4.97 3.505 -8 3 C-3.5 0 -3.5 0 0 0 Z " fill="#816941" transform="translate(47,27)"/>
<path d="M0 0 C1.98 0.495 1.98 0.495 4 1 C3.34 1 2.68 1 2 1 C2 6.28 2 11.56 2 17 C1.01 17 0.02 17 -1 17 C-0.67 11.39 -0.34 5.78 0 0 Z " fill="#553A1E" transform="translate(48,26)"/>
<path d="M0 0 C2.86724686 0.57344937 3.8614515 0.8614515 6 3 C5.01 3 4.02 3 3 3 C3 3.99 3 4.98 3 6 C4.32 6.33 5.64 6.66 7 7 C7 8.32 7 9.64 7 11 C3.73217086 9.91072362 3.18062667 9.31652071 1.25 6.625 C0.80140625 6.01914062 0.3528125 5.41328125 -0.109375 4.7890625 C-1 3 -1 3 0 0 Z " fill="#6D5D3C" transform="translate(79,31)"/>
<path d="M0 0 C3.96 1.98 3.96 1.98 8 4 C8 4.99 8 5.98 8 7 C5.36 7.66 2.72 8.32 0 9 C0.33 7.68 0.66 6.36 1 5 C0.61432869 2.31850007 0.61432869 2.31850007 0 0 Z " fill="#826B3F" transform="translate(38,19)"/>
<path d="M0 0 C0.66 0.66 1.32 1.32 2 2 C-0.43201863 3.67519118 -2.86997798 5.34025134 -5.3125 7 C-6.00279297 7.47695312 -6.69308594 7.95390625 -7.40429688 8.4453125 C-8.07138672 8.89648438 -8.73847656 9.34765625 -9.42578125 9.8125 C-10.34484253 10.44091797 -10.34484253 10.44091797 -11.2824707 11.08203125 C-13 12 -13 12 -16 12 C-5.62642369 3.55353075 -5.62642369 3.55353075 0 0 Z " fill="#67604F" transform="translate(78,84)"/>
<path d="M0 0 C0.66 0 1.32 0 2 0 C3.14806378 9.41002278 3.14806378 9.41002278 3 14 C1.68 14 0.36 14 -1 14 C-0.67 9.38 -0.34 4.76 0 0 Z " fill="#D1BA72" transform="translate(84,47)"/>
<path d="M0 0 C0.99 0.33 1.98 0.66 3 1 C3 1.99 3 2.98 3 4 C1.35 3.67 -0.3 3.34 -2 3 C-2.33 4.98 -2.66 6.96 -3 9 C-3.66 9 -4.32 9 -5 9 C-5.66 6.69 -6.32 4.38 -7 2 C-3.535 1.505 -3.535 1.505 0 1 C0 0.67 0 0.34 0 0 Z " fill="#A8985E" transform="translate(27,47)"/>
<path d="M0 0 C0.33 0 0.66 0 1 0 C1 1.65 1 3.3 1 5 C-3.87664009 5.34833144 -6.77050005 4.41685712 -11 2 C-7.61288625 0.95781115 -4.52350307 1 -1 1 C-0.67 0.67 -0.34 0.34 0 0 Z " fill="#A38E5B" transform="translate(41,48)"/>
<path d="M0 0 C0.33 0.66 0.66 1.32 1 2 C0.27931168 3.73620367 -0.44747119 5.47067912 -1.23046875 7.1796875 C-2.17352248 9.41046435 -2.63800012 11.61080078 -3 14 C-3.33 14 -3.66 14 -4 14 C-4.6663569 10.97170479 -5.14543237 8.10601995 -5 5 C-2.5625 1.9375 -2.5625 1.9375 0 0 Z " fill="#C0B375" transform="translate(74,36)"/>
<path d="M0 0 C0.99 0 1.98 0 3 0 C3.24954005 1.43410368 3.47392642 2.87260072 3.6875 4.3125 C3.87892578 5.51326172 3.87892578 5.51326172 4.07421875 6.73828125 C4 9 4 9 2.51953125 10.79296875 C2.01808594 11.19128906 1.51664063 11.58960938 1 12 C0.01751476 7.9472484 -0.08159574 4.16138263 0 0 Z " fill="#E2D089" transform="translate(26,35)"/>
<path d="M0 0 C1.98 1.65 3.96 3.3 6 5 C5.01 5.495 5.01 5.495 4 6 C4 6.66 4 7.32 4 8 C2.35 7.67 0.7 7.34 -1 7 C-0.67 4.69 -0.34 2.38 0 0 Z " fill="#967B4E" transform="translate(101,26)"/>
<path d="M0 0 C2.97 1.65 5.94 3.3 9 5 C7.35 6.32 5.7 7.64 4 9 C0 3.375 0 3.375 0 0 Z " fill="#5B4628" transform="translate(8,38)"/>
<path d="M0 0 C3 1 3 1 4.25 2.75 C5.17574966 5.52724898 4.77341204 7.21571665 4 10 C3.01 10 2.02 10 1 10 C0.67 6.7 0.34 3.4 0 0 Z " fill="#886335" transform="translate(93,20)"/>
<path d="M0 0 C0.33 0 0.66 0 1 0 C1.33 2.97 1.66 5.94 2 9 C3.65 9.33 5.3 9.66 7 10 C5.1875 12 5.1875 12 3 14 C2.01 14 1.02 14 0 14 C0 9.38 0 4.76 0 0 Z " fill="#785D3A" transform="translate(49,88)"/>
<path d="M0 0 C0.33 0 0.66 0 1 0 C1.99 3.3 2.98 6.6 4 10 C3.34 10.66 2.68 11.32 2 12 C1.16121545 10.71186658 0.32913217 9.41936744 -0.5 8.125 C-0.9640625 7.40570313 -1.428125 6.68640625 -1.90625 5.9453125 C-3 4 -3 4 -3 2 C-2.01 2 -1.02 2 0 2 C0 1.34 0 0.68 0 0 Z " fill="#B3A36D" transform="translate(34,76)"/>
<path d="M0 0 C0.99 0.495 0.99 0.495 2 1 C2.4140625 2.9609375 2.4140625 2.9609375 2.625 5.375 C2.69976562 6.16648437 2.77453125 6.95796875 2.8515625 7.7734375 C2.96749782 9.51246725 3 11.25711002 3 13 C2.01 13 1.02 13 0 13 C0 8.71 0 4.42 0 0 Z " fill="#CEB66E" transform="translate(66,46)"/>
<path d="M0 0 C0 0.99 0 1.98 0 3 C0.33 3.99 0.66 4.98 1 6 C-2.77545388 4.90931332 -5.47043472 4.0916909 -8 1 C-2.25 -1.125 -2.25 -1.125 0 0 Z " fill="#624F35" transform="translate(19,37)"/>
<path d="M0 0 C0.99 0.66 1.98 1.32 3 2 C3 2.99 3 3.98 3 5 C0.69 6.32 -1.62 7.64 -4 9 C-4 7.68 -4 6.36 -4 5 C-3.34 5 -2.68 5 -2 5 C-1.67 4.01 -1.34 3.02 -1 2 C-0.67 1.34 -0.34 0.68 0 0 Z " fill="#CABD7D" transform="translate(80,75)"/>
<path d="M0 0 C0.5534764 2.07553648 1 3.84365964 1 6 C2.98 6 4.96 6 7 6 C7 6.33 7 6.66 7 7 C5.5629191 7.05422947 4.12524538 7.09289723 2.6875 7.125 C1.88699219 7.14820313 1.08648437 7.17140625 0.26171875 7.1953125 C-2 7 -2 7 -5 5 C-3.35 3.35 -1.7 1.7 0 0 Z " fill="#5F472B" transform="translate(56,54)"/>
<path d="M0 0 C0.66 0.33 1.32 0.66 2 1 C1.01 2.485 1.01 2.485 0 4 C0 5.32 0 6.64 0 8 C0.99 8.33 1.98 8.66 3 9 C1.02 9 -0.96 9 -3 9 C-3.75 6.75 -3.75 6.75 -4 4 C-2.0625 1.6875 -2.0625 1.6875 0 0 Z " fill="#A99D67" transform="translate(28,22)"/>
<path d="M0 0 C0.99 0 1.98 0 3 0 C3 1.32 3 2.64 3 4 C3.99 4.66 4.98 5.32 6 6 C5.34 6.66 4.68 7.32 4 8 C2.68 8 1.36 8 0 8 C0 5.36 0 2.72 0 0 Z " fill="#C2A868" transform="translate(11,25)"/>
<path d="M0 0 C0.66 0 1.32 0 2 0 C2 0.99 2 1.98 2 3 C2.99 2.34 3.98 1.68 5 1 C7.1875 1.375 7.1875 1.375 9 2 C3.375 6 3.375 6 0 6 C-1 3 -1 3 0 0 Z " fill="#BEAC72" transform="translate(64,85)"/>
<path d="M0 0 C0.66 0.33 1.32 0.66 2 1 C1.7834375 1.8353125 1.7834375 1.8353125 1.5625 2.6875 C1.1694125 4.30352638 0.81850994 5.93013655 0.5 7.5625 C0 10 0 10 -1 13 C-1.99 12.67 -2.98 12.34 -4 12 C-3.33501617 7.61110675 -1.81242323 4.0188515 0 0 Z " fill="#A08551" transform="translate(63,46)"/>
<path d="M0 0 C0.66 1.32 1.32 2.64 2 4 C1.34 4 0.68 4 0 4 C0.33 5.65 0.66 7.3 1 9 C-1.475 8.01 -1.475 8.01 -4 7 C-4 4 -4 4 -2 1.8125 C-1.34 1.214375 -0.68 0.61625 0 0 Z " fill="#6C532E" transform="translate(42,10)"/>
<path d="M0 0 C0.33 0 0.66 0 1 0 C1 4.29 1 8.58 1 13 C-1.83328987 10.16671013 -2.7191375 8.64553172 -4 5 C-2.68 5.33 -1.36 5.66 0 6 C0 4.02 0 2.04 0 0 Z " fill="#735E3F" transform="translate(46,92)"/>
<path d="M0 0 C0.33 0 0.66 0 1 0 C1.04898438 0.85464844 1.09796875 1.70929687 1.1484375 2.58984375 C1.22320312 3.69457031 1.29796875 4.79929687 1.375 5.9375 C1.44460937 7.03964844 1.51421875 8.14179687 1.5859375 9.27734375 C1.72257812 10.17582031 1.85921875 11.07429688 2 12 C2.66 12.33 3.32 12.66 4 13 C3.67 14.32 3.34 15.64 3 17 C2.34 17 1.68 17 1 17 C-0.96611502 12.95520612 -1.11331236 10.13114252 -0.625 5.6875 C-0.51414063 4.61886719 -0.40328125 3.55023438 -0.2890625 2.44921875 C-0.14597656 1.23685547 -0.14597656 1.23685547 0 0 Z " fill="#DFD48D" transform="translate(59,30)"/>
<path d="M0 0 C0.33 0 0.66 0 1 0 C1.16789217 3.27077164 1.33410238 6.54162664 1.5 9.8125 C1.54769531 10.74126953 1.59539063 11.67003906 1.64453125 12.62695312 C1.68964844 13.51962891 1.73476563 14.41230469 1.78125 15.33203125 C1.82314453 16.15421143 1.86503906 16.9763916 1.90820312 17.82348633 C1.98092498 19.54772929 2 21.27422415 2 23 C1.34 23 0.68 23 0 23 C0 15.41 0 7.82 0 0 Z " fill="#C1A767" transform="translate(55,29)"/>
<path d="M0 0 C0 2.64 0 5.28 0 8 C-0.99 8 -1.98 8 -3 8 C-3.66 6.35 -4.32 4.7 -5 3 C-1.125 0 -1.125 0 0 0 Z " fill="#CFB470" transform="translate(82,22)"/>
<path d="M0 0 C0.66 0.66 1.32 1.32 2 2 C1.649375 2.61875 1.29875 3.2375 0.9375 3.875 C0.4734375 4.926875 0.4734375 4.926875 0 6 C0.33 6.66 0.66 7.32 1 8 C-0.32 8 -1.64 8 -3 8 C-3.33 6.35 -3.66 4.7 -4 3 C-2.68 2.01 -1.36 1.02 0 0 Z " fill="#AC894C" transform="translate(91,22)"/>
<path d="M0 0 C0.66 0 1.32 0 2 0 C2 2.31 2 4.62 2 7 C3.32 7 4.64 7 6 7 C6 7.66 6 8.32 6 9 C3.69 8.67 1.38 8.34 -1 8 C-0.67 5.36 -0.34 2.72 0 0 Z " fill="#B8A56A" transform="translate(56,18)"/>
<path d="M0 0 C0.99 0.33 1.98 0.66 3 1 C3 3.64 3 6.28 3 9 C2.01 9.33 1.02 9.66 0 10 C0 6.7 0 3.4 0 0 Z " fill="#45321D" transform="translate(48,68)"/>
<path d="M0 0 C4 0 4 0 7 2 C7 2.99 7 3.98 7 5 C5.68 5.33 4.36 5.66 3 6 C0 1.125 0 1.125 0 0 Z " fill="#433A28" transform="translate(112,43)"/>
<path d="M0 0 C1.32 0 2.64 0 4 0 C4.66 3.63 5.32 7.26 6 11 C5.34 10.67 4.68 10.34 4 10 C4 8.02 4 6.04 4 4 C2.68 3.67 1.36 3.34 0 3 C0 2.01 0 1.02 0 0 Z " fill="#BCA56A" transform="translate(82,34)"/>
<path d="M0 0 C1.2065625 0.0309375 1.2065625 0.0309375 2.4375 0.0625 C1.4475 0.7225 0.4575 1.3825 -0.5625 2.0625 C-0.92710453 4.72903905 -0.92710453 4.72903905 -0.75 7.6875 C-0.72292969 8.69039062 -0.69585937 9.69328125 -0.66796875 10.7265625 C-0.63316406 11.49742188 -0.59835937 12.26828125 -0.5625 13.0625 C-3.03782211 10.58717789 -2.94954795 9.42318317 -3.25 6 C-3.33636719 5.10152344 -3.42273438 4.20304687 -3.51171875 3.27734375 C-3.52847656 2.54644531 -3.54523437 1.81554687 -3.5625 1.0625 C-2.5625 0.0625 -2.5625 0.0625 0 0 Z " fill="#3E2F17" transform="translate(8.5625,22.9375)"/>
<path d="M0 0 C0.99 0 1.98 0 3 0 C3.66 2.64 4.32 5.28 5 8 C3.68 7.67 2.36 7.34 1 7 C0.67 4.69 0.34 2.38 0 0 Z " fill="#DBCA83" transform="translate(61,20)"/>
<path d="M0 0 C-1.69179328 2.04219706 -2.63727666 2.91793306 -5.26171875 3.51171875 C-6.06222656 3.56972656 -6.86273438 3.62773438 -7.6875 3.6875 C-8.49574219 3.75324219 -9.30398437 3.81898437 -10.13671875 3.88671875 C-11.05904297 3.94279297 -11.05904297 3.94279297 -12 4 C-11.360625 3.71125 -10.72125 3.4225 -10.0625 3.125 C-7.84793921 2.17176549 -7.84793921 2.17176549 -7 0 C-4.0262656 -1.09036928 -3.11592499 -1.03864166 0 0 Z " fill="#3A3525" transform="translate(120,60)"/>
<path d="M0 0 C2.5625 2.1875 2.5625 2.1875 5 5 C4.8125 7.8125 4.8125 7.8125 4 10 C1.16625119 6.79663178 0.4794463 4.21912747 0 0 Z " fill="#D1BF7A" transform="translate(112,46)"/>
<path d="M0 0 C1.98 0.495 1.98 0.495 4 1 C3.625 3.9375 3.625 3.9375 3 7 C2.01 7.495 2.01 7.495 1 8 C0.40267181 5.23735711 0 2.83967231 0 0 Z " fill="#F1E79B" transform="translate(72,65)"/>
<path d="M0 0 C0.66 0.33 1.32 0.66 2 1 C-2.455 3.97 -2.455 3.97 -7 7 C-6 3 -6 3 -3.0625 1.1875 C-2.051875 0.795625 -1.04125 0.40375 0 0 Z " fill="#8D7B5A" transform="translate(113,62)"/>
<path d="M0 0 C0.99 0 1.98 0 3 0 C4.85776765 3.13498292 5.20140476 5.37471432 5 9 C0.57142857 3.85714286 0.57142857 3.85714286 0 0 Z " fill="#867343" transform="translate(13,47)"/>
<path d="M0 0 C1.32 0.66 2.64 1.32 4 2 C3.67 3.65 3.34 5.3 3 7 C2.34 7 1.68 7 1 7 C-0.625 4.5 -0.625 4.5 -2 2 C-1.34 2 -0.68 2 0 2 C0 1.34 0 0.68 0 0 Z " fill="#B3A56D" transform="translate(105,32)"/>
<path d="M0 0 C2 3 2 3 1.625 6.1875 C1.41875 7.115625 1.2125 8.04375 1 9 C0.01 9.33 -0.98 9.66 -2 10 C-2.33 9.34 -2.66 8.68 -3 8 C-2.34 8 -1.68 8 -1 8 C-1.020625 6.865625 -1.04125 5.73125 -1.0625 4.5625 C-1 1 -1 1 0 0 Z " fill="#E3D28E" transform="translate(33,20)"/>
<path d="M0 0 C0.66 0 1.32 0 2 0 C2.33 2.97 2.66 5.94 3 9 C2.01 9 1.02 9 0 9 C0 6.03 0 3.06 0 0 Z " fill="#DDC781" transform="translate(91,34)"/>
<path d="M0 0 C0.66 0 1.32 0 2 0 C2 1.65 2 3.3 2 5 C2.99 5.33 3.98 5.66 5 6 C3.35 6.33 1.7 6.66 0 7 C-1.33332095 4.3333581 -0.67102033 2.83319697 0 0 Z " fill="#D7C882" transform="translate(14,23)"/>
<path d="M0 0 C-1.65 1.32 -3.3 2.64 -5 4 C-5 3.34 -5 2.68 -5 2 C-6.65 2 -8.3 2 -10 2 C-3.75 -1.125 -3.75 -1.125 0 0 Z " fill="#69553A" transform="translate(30,19)"/>
<path d="M0 0 C1.98 0.99 1.98 0.99 4 2 C4 3.98 4 5.96 4 8 C3.34 8 2.68 8 2 8 C1.34 5.36 0.68 2.72 0 0 Z " fill="#D1BC79" transform="translate(80,65)"/>
<path d="M0 0 C1.77706209 2.66559313 2.87548273 5.0280615 4 8 C3.01 8 2.02 8 1 8 C-0.42944945 5.64561267 -1.08661261 4.51967567 -0.625 1.75 C-0.41875 1.1725 -0.2125 0.595 0 0 Z " fill="#A79765" transform="translate(19,53)"/>
<path d="M0 0 C1.85776765 3.13498292 2.20140476 5.37471432 2 9 C-1.875 7.25 -1.875 7.25 -3 5 C-2.34 5 -1.68 5 -1 5 C-0.67 3.35 -0.34 1.7 0 0 Z " fill="#4E4129" transform="translate(99,50)"/>
<path d="M0 0 C0.7425 0.61875 1.485 1.2375 2.25 1.875 C4.48801188 3.60437281 6.43739987 4.86106661 9 6 C8.67 6.66 8.34 7.32 8 8 C4.63820226 6.55922954 2.40843732 4.75249979 0 2 C0 1.34 0 0.68 0 0 Z " fill="#40351B" transform="translate(87,47)"/>
<path d="M0 0 C0.99 0.99 1.98 1.98 3 3 C2.6875 6.1875 2.6875 6.1875 2 9 C1.34 9 0.68 9 0 9 C0 6.03 0 3.06 0 0 Z " fill="#CBAC6A" transform="translate(62,79)"/>
<path d="M0 0 C1.65 0.99 3.3 1.98 5 3 C4.67 3.99 4.34 4.98 4 6 C1.9375 6.6875 1.9375 6.6875 0 7 C0 4.69 0 2.38 0 0 Z " fill="#665236" transform="translate(118,50)"/>
<path d="M0 0 C0.99 0.99 1.98 1.98 3 3 C2.8125 6.125 2.8125 6.125 2 9 C1.01 9.495 1.01 9.495 0 10 C0 6.7 0 3.4 0 0 Z " fill="#E0CF89" transform="translate(112,50)"/>
<path d="M0 0 C0.33 0 0.66 0 1 0 C1 2.31 1 4.62 1 7 C-0.32 6.34 -1.64 5.68 -3 5 C-2.03114628 3.31503702 -1.03013277 1.64821244 0 0 Z " fill="#A57B3F" transform="translate(93,23)"/>
<path d="M0 0 C1.98 0 3.96 0 6 0 C6 0.66 6 1.32 6 2 C3.5 3.625 3.5 3.625 1 5 C0.67 3.35 0.34 1.7 0 0 Z " fill="#655736" transform="translate(94,66)"/>
<path d="M0 0 C0.99 0.33 1.98 0.66 3 1 C3 2.98 3 4.96 3 7 C1.68 6.67 0.36 6.34 -1 6 C-0.67 4.02 -0.34 2.04 0 0 Z " fill="#C5AA66" transform="translate(37,56)"/>
<path d="M0 0 C1.32 1.65 2.64 3.3 4 5 C2.68 5.99 1.36 6.98 0 8 C0 5.36 0 2.72 0 0 Z " fill="#967F57" transform="translate(51,49)"/>
<path d="M0 0 C1.65 1.65 3.3 3.3 5 5 C4.01 5.33 3.02 5.66 2 6 C1.67 6.66 1.34 7.32 1 8 C0.67 5.36 0.34 2.72 0 0 Z " fill="#B9A872" transform="translate(78,37)"/>
<path d="M0 0 C1.98 0.495 1.98 0.495 4 1 C2.35 2.65 0.7 4.3 -1 6 C-0.67 4.02 -0.34 2.04 0 0 Z " fill="#7C683F" transform="translate(71,32)"/>
<path d="M0 0 C1.32 0 2.64 0 4 0 C4.33 1.32 4.66 2.64 5 4 C3.02 4.99 3.02 4.99 1 6 C0.67 4.02 0.34 2.04 0 0 Z " fill="#BBA669" transform="translate(78,15)"/>
<path d="" fill="#000000" transform="translate(0,0)"/>
<path d="" fill="#000000" transform="translate(0,0)"/>
<path d="" fill="#000000" transform="translate(0,0)"/>
<path d="" fill="#000000" transform="translate(0,0)"/>
<path d="" fill="#000000" transform="translate(0,0)"/>
<path d="" fill="#000000" transform="translate(0,0)"/>
<path d="" fill="#000000" transform="translate(0,0)"/>
<path d="" fill="#000000" transform="translate(0,0)"/>
<path d="" fill="#000000" transform="translate(0,0)"/>
<path d="" fill="#000000" transform="translate(0,0)"/>
<path d="" fill="#000000" transform="translate(0,0)"/>
<path d="" fill="#000000" transform="translate(0,0)"/>
<path d="" fill="#000000" transform="translate(0,0)"/>
<path d="" fill="#000000" transform="translate(0,0)"/>
<path d="" fill="#000000" transform="translate(0,0)"/>
<path d="" fill="#000000" transform="translate(0,0)"/>
<path d="" fill="#000000" transform="translate(0,0)"/>
<path d="" fill="#000000" transform="translate(0,0)"/>
<path d="" fill="#000000" transform="translate(0,0)"/>
<path d="" fill="#000000" transform="translate(0,0)"/>
<path d="" fill="#000000" transform="translate(0,0)"/>
<path d="" fill="#000000" transform="translate(0,0)"/>
<path d="" fill="#000000" transform="translate(0,0)"/>
<path d="" fill="#000000" transform="translate(0,0)"/>
<path d="" fill="#000000" transform="translate(0,0)"/>
<path d="" fill="#554445" transform="translate(0,0)"/>
<path d="" fill="#000000" transform="translate(0,0)"/>
<path d="" fill="#000000" transform="translate(0,0)"/>
<path d="" fill="#000000" transform="translate(0,0)"/>
<path d="" fill="#000000" transform="translate(0,0)"/>
<path d="" fill="#000000" transform="translate(0,0)"/>
<path d="" fill="#000000" transform="translate(0,0)"/>
<path d="" fill="#000000" transform="translate(0,0)"/>
<path d="" fill="#000000" transform="translate(0,0)"/>
<path d="" fill="#000000" transform="translate(0,0)"/>
<path d="" fill="#000000" transform="translate(0,0)"/>
<path d="" fill="#000000" transform="translate(0,0)"/>
<path d="" fill="#000000" transform="translate(0,0)"/>
<path d="" fill="#000000" transform="translate(0,0)"/>
<path d="" fill="#000000" transform="translate(0,0)"/>
<path d="" fill="#000000" transform="translate(0,0)"/>
<path d="" fill="#000000" transform="translate(0,0)"/>
<path d="" fill="#000000" transform="translate(0,0)"/>
<path d="" fill="#000000" transform="translate(0,0)"/>
<path d="" fill="#000000" transform="translate(0,0)"/>
<path d="" fill="#000000" transform="translate(0,0)"/>
<path d="" fill="#000000" transform="translate(0,0)"/>
<path d="" fill="#000000" transform="translate(0,0)"/>
</svg>
